<svg xmlns="http://www.w3.org/2000/svg" xmlns:xlink="http://www.w3.org/1999/xlink" width="1080" zoomAndPan="magnify" viewBox="0 0 810 675.000002" height="900" preserveAspectRatio="xMidYMid meet" version="1.0">
  <defs>
    <g />
    <clipPath id="7514366b98">
      <path d="M 116 575.082031 L 175.914062 575.082031 L 175.914062 634.992188 L 116 634.992188 Z M 116 575.082031 " clip-rule="nonzero" />
    </clipPath>
    <clipPath id="03f5d05067">
      <path d="M 39.382812 575.082031 L 99.292969 575.082031 L 99.292969 634.992188 L 39.382812 634.992188 Z M 39.382812 575.082031 " clip-rule="nonzero" />
    </clipPath>
    <clipPath id="deeae48e06">
      <path d="M 77.1875 512.472656 L 137.101562 512.472656 L 137.101562 572.382812 L 77.1875 572.382812 Z M 77.1875 512.472656 " clip-rule="nonzero" />
    </clipPath>
  </defs>
  <g fill="#d61515" fill-opacity="1">
    <g transform="translate(185.481736, 302.007598)">
      <g>
        <path d="M 87.378906 -264.828125 L -9.34375 -247.011719 L -18.726562 -211.324219 L 60.585938 -225.9375 L 16.074219 -139.46875 L 76.867188 -122.820312 L 93.171875 -34.3125 L 125.554688 -57.597656 L 108.464844 -150.375 L 58.207031 -164.207031 L 93.429688 -231.988281 Z M -0.359375 -167.847656 L 24.027344 -199.507812 L -18.726562 -211.324219 L -27.65625 -177.761719 Z M 0.78125 -23.40625 L 56.941406 -7.945312 L 93.171875 -34.3125 L 10.007812 -57.191406 Z M 0.78125 -23.40625 " />
      </g>
    </g>
  </g>
  <g fill="#d61515" fill-opacity="1">
    <g transform="translate(314.197783, 276.257684)">
      <g>
        <path d="M 90.082031 -247.640625 L 49.785156 -228.042969 L 106.710938 -200.984375 L 107.765625 -17.484375 L 143.734375 -34.722656 L 142.65625 -222.5625 Z M 49.785156 -228.042969 L 13.816406 -210.804688 L 14.894531 -22.960938 L 67.46875 2.117188 L 107.765625 -17.484375 L 50.839844 -44.539062 Z M 49.785156 -228.042969 " />
      </g>
    </g>
  </g>
  <g fill="#d61515" fill-opacity="1">
    <g transform="translate(454.872244, 273.776591)">
      <g>
        <path d="M 137.191406 -139.71875 L 76.207031 -150.59375 L 86.484375 -197.777344 L 154.3125 -177.710938 L 175.625 -207.832031 L 74.445312 -237.746094 L 37.304688 -123.605469 L 128.699219 -107.3125 L 109.148438 2.332031 L 147.644531 -8.105469 L 164.851562 -104.597656 Z M 18.808594 -19.882812 L 65.96875 14.304688 L 109.148438 2.332031 L 39.308594 -48.285156 Z M 18.808594 -19.882812 " />
      </g>
    </g>
  </g>
  <g clip-path="url(#7514366b98)">
    <path fill="#d61515" d="M 175.914062 605.035156 C 175.914062 606.019531 175.863281 606.996094 175.769531 607.972656 C 175.671875 608.949219 175.527344 609.917969 175.335938 610.878906 C 175.144531 611.84375 174.90625 612.792969 174.621094 613.734375 C 174.335938 614.671875 174.007812 615.59375 173.632812 616.5 C 173.257812 617.40625 172.835938 618.292969 172.375 619.15625 C 171.914062 620.023438 171.410156 620.863281 170.863281 621.679688 C 170.320312 622.496094 169.734375 623.28125 169.113281 624.039062 C 168.488281 624.796875 167.832031 625.523438 167.136719 626.21875 C 166.445312 626.914062 165.71875 627.570312 164.960938 628.191406 C 164.203125 628.816406 163.414062 629.398438 162.597656 629.945312 C 161.785156 630.488281 160.941406 630.992188 160.078125 631.457031 C 159.210938 631.917969 158.328125 632.335938 157.421875 632.710938 C 156.515625 633.085938 155.589844 633.417969 154.652344 633.703125 C 153.714844 633.988281 152.761719 634.226562 151.800781 634.417969 C 150.839844 634.609375 149.867188 634.753906 148.894531 634.847656 C 147.917969 634.945312 146.9375 634.992188 145.957031 634.992188 C 144.976562 634.992188 143.996094 634.945312 143.019531 634.847656 C 142.042969 634.753906 141.074219 634.609375 140.113281 634.417969 C 139.148438 634.226562 138.199219 633.988281 137.261719 633.703125 C 136.320312 633.417969 135.398438 633.085938 134.492188 632.710938 C 133.585938 632.335938 132.699219 631.917969 131.835938 631.457031 C 130.96875 630.992188 130.128906 630.488281 129.3125 629.945312 C 128.5 629.398438 127.710938 628.816406 126.953125 628.191406 C 126.195312 627.570312 125.46875 626.914062 124.773438 626.21875 C 124.082031 625.523438 123.421875 624.796875 122.800781 624.039062 C 122.179688 623.28125 121.59375 622.496094 121.050781 621.679688 C 120.503906 620.863281 120 620.023438 119.539062 619.15625 C 119.074219 618.292969 118.65625 617.40625 118.28125 616.5 C 117.90625 615.59375 117.574219 614.671875 117.289062 613.734375 C 117.007812 612.792969 116.769531 611.84375 116.578125 610.878906 C 116.386719 609.917969 116.242188 608.949219 116.144531 607.972656 C 116.050781 606.996094 116 606.019531 116 605.035156 C 116 604.054688 116.050781 603.078125 116.144531 602.101562 C 116.242188 601.125 116.386719 600.15625 116.578125 599.191406 C 116.769531 598.230469 117.007812 597.28125 117.289062 596.339844 C 117.574219 595.402344 117.90625 594.480469 118.28125 593.574219 C 118.65625 592.667969 119.074219 591.78125 119.539062 590.914062 C 120 590.050781 120.503906 589.210938 121.050781 588.394531 C 121.59375 587.578125 122.179688 586.792969 122.800781 586.03125 C 123.421875 585.273438 124.082031 584.546875 124.773438 583.855469 C 125.46875 583.160156 126.195312 582.503906 126.953125 581.878906 C 127.710938 581.257812 128.5 580.675781 129.3125 580.128906 C 130.128906 579.585938 130.96875 579.082031 131.835938 578.617188 C 132.699219 578.15625 133.585938 577.738281 134.492188 577.363281 C 135.398438 576.984375 136.320312 576.65625 137.261719 576.371094 C 138.199219 576.085938 139.148438 575.847656 140.113281 575.65625 C 141.074219 575.464844 142.042969 575.320312 143.019531 575.226562 C 143.996094 575.128906 144.976562 575.082031 145.957031 575.082031 C 146.9375 575.082031 147.917969 575.128906 148.894531 575.226562 C 149.867188 575.320312 150.839844 575.464844 151.800781 575.65625 C 152.761719 575.847656 153.714844 576.085938 154.652344 576.371094 C 155.589844 576.65625 156.515625 576.984375 157.421875 577.363281 C 158.328125 577.738281 159.210938 578.15625 160.078125 578.617188 C 160.941406 579.082031 161.785156 579.585938 162.597656 580.128906 C 163.414062 580.675781 164.203125 581.257812 164.960938 581.878906 C 165.71875 582.503906 166.445312 583.160156 167.136719 583.855469 C 167.832031 584.546875 168.488281 585.273438 169.113281 586.03125 C 169.734375 586.792969 170.320312 587.578125 170.863281 588.394531 C 171.410156 589.210938 171.914062 590.050781 172.375 590.914062 C 172.835938 591.78125 173.257812 592.667969 173.632812 593.574219 C 174.007812 594.480469 174.335938 595.402344 174.621094 596.339844 C 174.90625 597.28125 175.144531 598.230469 175.335938 599.191406 C 175.527344 600.15625 175.671875 601.125 175.769531 602.101562 C 175.863281 603.078125 175.914062 604.054688 175.914062 605.035156 Z M 175.914062 605.035156 " fill-opacity="1" fill-rule="nonzero" />
  </g>
  <g clip-path="url(#03f5d05067)">
    <path fill="#d61515" d="M 99.292969 605.035156 C 99.292969 606.019531 99.246094 606.996094 99.152344 607.972656 C 99.054688 608.949219 98.910156 609.917969 98.71875 610.878906 C 98.527344 611.84375 98.289062 612.792969 98.003906 613.734375 C 97.71875 614.671875 97.390625 615.59375 97.015625 616.5 C 96.640625 617.40625 96.21875 618.292969 95.757812 619.15625 C 95.296875 620.023438 94.792969 620.863281 94.246094 621.679688 C 93.703125 622.496094 93.117188 623.28125 92.496094 624.039062 C 91.871094 624.796875 91.214844 625.523438 90.519531 626.21875 C 89.828125 626.914062 89.101562 627.570312 88.34375 628.191406 C 87.585938 628.816406 86.796875 629.398438 85.980469 629.945312 C 85.164062 630.488281 84.324219 630.992188 83.460938 631.457031 C 82.59375 631.917969 81.710938 632.335938 80.804688 632.710938 C 79.894531 633.085938 78.972656 633.417969 78.035156 633.703125 C 77.097656 633.988281 76.144531 634.226562 75.183594 634.417969 C 74.222656 634.609375 73.25 634.753906 72.277344 634.847656 C 71.300781 634.945312 70.320312 634.992188 69.339844 634.992188 C 68.359375 634.992188 67.378906 634.945312 66.402344 634.847656 C 65.425781 634.753906 64.457031 634.609375 63.496094 634.417969 C 62.53125 634.226562 61.582031 633.988281 60.644531 633.703125 C 59.703125 633.417969 58.78125 633.085938 57.875 632.710938 C 56.96875 632.335938 56.082031 631.917969 55.21875 631.457031 C 54.351562 630.992188 53.511719 630.488281 52.695312 629.945312 C 51.882812 629.398438 51.09375 628.816406 50.335938 628.191406 C 49.578125 627.570312 48.851562 626.914062 48.15625 626.21875 C 47.464844 625.523438 46.804688 624.796875 46.183594 624.039062 C 45.5625 623.28125 44.976562 622.496094 44.433594 621.679688 C 43.886719 620.863281 43.382812 620.023438 42.921875 619.15625 C 42.457031 618.292969 42.039062 617.40625 41.664062 616.5 C 41.289062 615.59375 40.957031 614.671875 40.671875 613.734375 C 40.390625 612.792969 40.152344 611.84375 39.960938 610.878906 C 39.769531 609.917969 39.625 608.949219 39.527344 607.972656 C 39.433594 606.996094 39.382812 606.019531 39.382812 605.035156 C 39.382812 604.054688 39.433594 603.078125 39.527344 602.101562 C 39.625 601.125 39.769531 600.15625 39.960938 599.191406 C 40.152344 598.230469 40.390625 597.28125 40.671875 596.339844 C 40.957031 595.402344 41.289062 594.480469 41.664062 593.574219 C 42.039062 592.667969 42.457031 591.78125 42.921875 590.914062 C 43.382812 590.050781 43.886719 589.210938 44.433594 588.394531 C 44.976562 587.578125 45.5625 586.792969 46.183594 586.03125 C 46.804688 585.273438 47.464844 584.546875 48.15625 583.855469 C 48.851562 583.160156 49.578125 582.503906 50.335938 581.878906 C 51.09375 581.257812 51.882812 580.675781 52.695312 580.128906 C 53.511719 579.585938 54.351562 579.082031 55.21875 578.617188 C 56.082031 578.15625 56.96875 577.738281 57.875 577.363281 C 58.78125 576.984375 59.703125 576.65625 60.644531 576.371094 C 61.582031 576.085938 62.53125 575.847656 63.496094 575.65625 C 64.457031 575.464844 65.425781 575.320312 66.402344 575.226562 C 67.378906 575.128906 68.359375 575.082031 69.339844 575.082031 C 70.320312 575.082031 71.300781 575.128906 72.277344 575.226562 C 73.25 575.320312 74.222656 575.464844 75.183594 575.65625 C 76.144531 575.847656 77.097656 576.085938 78.035156 576.371094 C 78.972656 576.65625 79.894531 576.984375 80.804688 577.363281 C 81.710938 577.738281 82.59375 578.15625 83.460938 578.617188 C 84.324219 579.082031 85.164062 579.585938 85.980469 580.128906 C 86.796875 580.675781 87.585938 581.257812 88.34375 581.878906 C 89.101562 582.503906 89.828125 583.160156 90.519531 583.855469 C 91.214844 584.546875 91.871094 585.273438 92.496094 586.03125 C 93.117188 586.792969 93.703125 587.578125 94.246094 588.394531 C 94.792969 589.210938 95.296875 590.050781 95.757812 590.914062 C 96.21875 591.78125 96.640625 592.667969 97.015625 593.574219 C 97.390625 594.480469 97.71875 595.402344 98.003906 596.339844 C 98.289062 597.28125 98.527344 598.230469 98.71875 599.191406 C 98.910156 600.15625 99.054688 601.125 99.152344 602.101562 C 99.246094 603.078125 99.292969 604.054688 99.292969 605.035156 Z M 99.292969 605.035156 " fill-opacity="1" fill-rule="nonzero" />
  </g>
  <g clip-path="url(#deeae48e06)">
    <path fill="#d61515" d="M 137.101562 542.429688 C 137.101562 543.410156 137.050781 544.390625 136.957031 545.363281 C 136.859375 546.339844 136.714844 547.3125 136.523438 548.273438 C 136.332031 549.234375 136.09375 550.1875 135.808594 551.125 C 135.523438 552.0625 135.195312 552.984375 134.820312 553.890625 C 134.445312 554.800781 134.023438 555.683594 133.5625 556.550781 C 133.101562 557.414062 132.597656 558.253906 132.050781 559.070312 C 131.507812 559.886719 130.921875 560.675781 130.300781 561.433594 C 129.675781 562.191406 129.019531 562.917969 128.324219 563.609375 C 127.632812 564.304688 126.90625 564.960938 126.148438 565.585938 C 125.390625 566.207031 124.601562 566.792969 123.785156 567.335938 C 122.972656 567.882812 122.128906 568.386719 121.265625 568.847656 C 120.398438 569.308594 119.515625 569.730469 118.609375 570.105469 C 117.699219 570.480469 116.777344 570.808594 115.839844 571.09375 C 114.902344 571.378906 113.949219 571.617188 112.988281 571.808594 C 112.027344 572 111.054688 572.144531 110.082031 572.242188 C 109.105469 572.335938 108.125 572.382812 107.144531 572.382812 C 106.164062 572.382812 105.183594 572.335938 104.207031 572.242188 C 103.230469 572.144531 102.261719 572 101.300781 571.808594 C 100.335938 571.617188 99.386719 571.378906 98.449219 571.09375 C 97.507812 570.808594 96.585938 570.480469 95.679688 570.105469 C 94.773438 569.730469 93.886719 569.308594 93.023438 568.847656 C 92.15625 568.386719 91.316406 567.882812 90.5 567.335938 C 89.6875 566.792969 88.898438 566.207031 88.140625 565.585938 C 87.382812 564.960938 86.65625 564.304688 85.960938 563.609375 C 85.269531 562.917969 84.609375 562.191406 83.988281 561.433594 C 83.367188 560.675781 82.78125 559.886719 82.238281 559.070312 C 81.691406 558.253906 81.1875 557.414062 80.726562 556.550781 C 80.261719 555.683594 79.84375 554.800781 79.46875 553.890625 C 79.09375 552.984375 78.761719 552.0625 78.476562 551.125 C 78.195312 550.1875 77.957031 549.234375 77.765625 548.273438 C 77.574219 547.3125 77.429688 546.339844 77.332031 545.363281 C 77.238281 544.390625 77.1875 543.410156 77.1875 542.429688 C 77.1875 541.449219 77.238281 540.46875 77.332031 539.492188 C 77.429688 538.515625 77.574219 537.546875 77.765625 536.585938 C 77.957031 535.621094 78.195312 534.671875 78.476562 533.734375 C 78.761719 532.792969 79.09375 531.871094 79.46875 530.964844 C 79.84375 530.058594 80.261719 529.171875 80.726562 528.308594 C 81.1875 527.441406 81.691406 526.601562 82.238281 525.785156 C 82.78125 524.972656 83.367188 524.183594 83.988281 523.425781 C 84.609375 522.667969 85.269531 521.941406 85.960938 521.246094 C 86.65625 520.554688 87.382812 519.894531 88.140625 519.273438 C 88.898438 518.652344 89.6875 518.066406 90.5 517.523438 C 91.316406 516.976562 92.15625 516.472656 93.023438 516.011719 C 93.886719 515.546875 94.773438 515.128906 95.679688 514.753906 C 96.585938 514.378906 97.507812 514.046875 98.449219 513.761719 C 99.386719 513.476562 100.335938 513.242188 101.300781 513.050781 C 102.261719 512.859375 103.230469 512.714844 104.207031 512.617188 C 105.183594 512.519531 106.164062 512.472656 107.144531 512.472656 C 108.125 512.472656 109.105469 512.519531 110.082031 512.617188 C 111.054688 512.714844 112.027344 512.859375 112.988281 513.050781 C 113.949219 513.242188 114.902344 513.476562 115.839844 513.761719 C 116.777344 514.046875 117.699219 514.378906 118.609375 514.753906 C 119.515625 515.128906 120.398438 515.546875 121.265625 516.011719 C 122.128906 516.472656 122.972656 516.976562 123.785156 517.523438 C 124.601562 518.066406 125.390625 518.652344 126.148438 519.273438 C 126.90625 519.894531 127.632812 520.554688 128.324219 521.246094 C 129.019531 521.941406 129.675781 522.667969 130.300781 523.425781 C 130.921875 524.183594 131.507812 524.972656 132.050781 525.785156 C 132.597656 526.601562 133.101562 527.441406 133.5625 528.308594 C 134.023438 529.171875 134.445312 530.058594 134.820312 530.964844 C 135.195312 531.871094 135.523438 532.792969 135.808594 533.734375 C 136.09375 534.671875 136.332031 535.621094 136.523438 536.585938 C 136.714844 537.546875 136.859375 538.515625 136.957031 539.492188 C 137.050781 540.46875 137.101562 541.449219 137.101562 542.429688 Z M 137.101562 542.429688 " fill-opacity="1" fill-rule="nonzero" />
  </g>
  <path fill="#d61515" d="M 393.691406 385.578125 L 350.574219 385.011719 C 350.28125 385.007812 350.074219 384.875 349.949219 384.613281 C 349.828125 384.355469 349.859375 384.117188 350.046875 383.902344 C 356.789062 376.132812 363.476562 368.371094 370.109375 360.617188 C 380.402344 348.601562 384.832031 341.761719 398.300781 339.921875 C 407.160156 338.710938 417.183594 338.09375 428.375 338.082031 C 429.171875 338.082031 429.425781 338.460938 429.144531 339.214844 C 428.320312 341.441406 427.234375 343.449219 425.886719 345.242188 C 415.964844 358.527344 405.859375 371.667969 395.570312 384.667969 C 395.085938 385.277344 394.460938 385.578125 393.691406 385.578125 Z M 393.691406 385.578125 " fill-opacity="1" fill-rule="nonzero" />
  <path fill="#d61515" d="M 465.707031 383.578125 L 474.75 376.660156 C 475.976562 375.714844 476.640625 376.019531 476.75 377.570312 L 477.15625 383.660156 C 477.222656 384.644531 476.765625 385.136719 475.78125 385.136719 L 466.234375 385.136719 C 464.535156 385.136719 464.359375 384.617188 465.707031 383.578125 Z M 465.707031 383.578125 " fill-opacity="1" fill-rule="nonzero" />
  <path fill="#d61515" d="M 186.113281 388.835938 L 186.175781 384.890625 C 186.1875 384.164062 186.550781 383.765625 187.265625 383.699219 C 196.085938 382.828125 201.34375 390.234375 211.050781 390.210938 C 269.996094 390.078125 328.933594 390.226562 387.867188 390.65625 C 390.28125 390.671875 390.285156 390.785156 387.886719 391 C 374.863281 392.203125 362.296875 395.148438 350.191406 399.839844 C 346.832031 401.148438 343.507812 401.804688 340.21875 401.804688 C 281.839844 401.832031 223.46875 401.835938 165.101562 401.824219 C 164.183594 401.824219 163.761719 401.367188 163.828125 400.449219 C 164.070312 397.3125 164.476562 389.707031 169.46875 389.96875 C 174.511719 390.210938 179.574219 390.3125 184.660156 390.273438 C 185.617188 390.273438 186.101562 389.792969 186.113281 388.835938 Z M 186.113281 388.835938 " fill-opacity="1" fill-rule="nonzero" />
  <path fill="#d61515" d="M 403.964844 390.332031 C 431.832031 389.605469 460.632812 390.535156 487.953125 390.394531 C 496.164062 390.339844 502.757812 393.476562 507.734375 399.800781 C 507.878906 399.984375 507.964844 400.195312 507.988281 400.429688 C 508.011719 400.664062 507.972656 400.886719 507.867188 401.101562 C 507.761719 401.3125 507.609375 401.484375 507.40625 401.609375 C 507.203125 401.738281 506.980469 401.800781 506.742188 401.804688 C 489.132812 401.832031 471.574219 401.835938 454.058594 401.824219 C 450.890625 401.824219 447.675781 401.183594 444.414062 399.902344 C 431.738281 394.914062 418.25 391.953125 403.945312 391.023438 C 403.851562 391.019531 403.769531 390.984375 403.703125 390.914062 C 403.640625 390.84375 403.609375 390.761719 403.613281 390.667969 C 403.613281 390.574219 403.648438 390.492188 403.71875 390.425781 C 403.789062 390.363281 403.871094 390.332031 403.964844 390.332031 Z M 403.964844 390.332031 " fill-opacity="1" fill-rule="nonzero" />
  <path fill="#d61515" d="M 523.285156 406.457031 C 523.488281 392.113281 542.113281 389.765625 542.617188 406.457031 C 542.929688 416.613281 543.070312 429.394531 543.042969 444.8125 C 543.023438 461.539062 527.734375 463.117188 522.820312 447.054688 C 522.589844 446.328125 522.097656 445.945312 521.34375 445.902344 C 514.144531 445.4375 502.777344 449.078125 497.761719 442.179688 C 486.71875 426.988281 475.214844 419.585938 462.109375 408.824219 C 460.949219 407.867188 461.117188 407.386719 462.613281 407.386719 L 522.335938 407.386719 C 522.59375 407.386719 522.816406 407.296875 523 407.117188 C 523.183594 406.933594 523.28125 406.714844 523.285156 406.457031 Z M 523.285156 406.457031 " fill-opacity="1" fill-rule="nonzero" />
  <path fill="#d61515" d="M 516.289062 515.109375 C 516.289062 517.0625 516.238281 519.011719 516.144531 520.964844 C 516.046875 522.914062 515.90625 524.863281 515.714844 526.808594 C 515.523438 528.753906 515.28125 530.691406 514.996094 532.621094 C 514.710938 534.554688 514.375 536.480469 513.996094 538.394531 C 513.613281 540.3125 513.1875 542.21875 512.710938 544.113281 C 512.238281 546.007812 511.714844 547.890625 511.148438 549.757812 C 510.582031 551.628906 509.96875 553.484375 509.3125 555.324219 C 508.652344 557.164062 507.949219 558.984375 507.203125 560.789062 C 506.457031 562.59375 505.664062 564.378906 504.828125 566.144531 C 503.996094 567.910156 503.117188 569.65625 502.195312 571.378906 C 501.277344 573.101562 500.3125 574.800781 499.308594 576.476562 C 498.304688 578.152344 497.261719 579.804688 496.175781 581.425781 C 495.089844 583.050781 493.964844 584.648438 492.800781 586.21875 C 491.640625 587.785156 490.4375 589.328125 489.199219 590.835938 C 487.960938 592.347656 486.683594 593.824219 485.371094 595.273438 C 484.0625 596.71875 482.714844 598.136719 481.332031 599.515625 C 479.953125 600.898438 478.539062 602.246094 477.089844 603.554688 C 475.644531 604.867188 474.164062 606.144531 472.65625 607.382812 C 471.144531 608.621094 469.605469 609.824219 468.039062 610.988281 C 466.46875 612.152344 464.875 613.277344 463.25 614.363281 C 461.625 615.449219 459.976562 616.492188 458.300781 617.496094 C 456.625 618.5 454.925781 619.464844 453.203125 620.382812 C 451.480469 621.304688 449.738281 622.183594 447.972656 623.019531 C 446.207031 623.855469 444.421875 624.644531 442.617188 625.394531 C 440.8125 626.140625 438.992188 626.84375 437.152344 627.5 C 435.3125 628.160156 433.457031 628.773438 431.589844 629.339844 C 429.722656 629.90625 427.839844 630.425781 425.945312 630.902344 C 424.050781 631.378906 422.144531 631.804688 420.230469 632.1875 C 418.3125 632.566406 416.390625 632.902344 414.457031 633.1875 C 412.527344 633.472656 410.589844 633.714844 408.644531 633.90625 C 406.699219 634.097656 404.753906 634.238281 402.804688 634.335938 C 400.851562 634.433594 398.898438 634.480469 396.945312 634.480469 C 394.992188 634.480469 393.042969 634.433594 391.089844 634.335938 C 389.140625 634.238281 387.195312 634.097656 385.25 633.90625 C 383.304688 633.714844 381.367188 633.472656 379.4375 633.1875 C 377.503906 632.902344 375.582031 632.566406 373.664062 632.1875 C 371.75 631.804688 369.84375 631.378906 367.949219 630.902344 C 366.054688 630.425781 364.171875 629.90625 362.304688 629.339844 C 360.433594 628.773438 358.582031 628.160156 356.742188 627.5 C 354.902344 626.84375 353.082031 626.140625 351.277344 625.394531 C 349.472656 624.644531 347.6875 623.855469 345.921875 623.019531 C 344.15625 622.183594 342.414062 621.304688 340.691406 620.382812 C 338.96875 619.464844 337.269531 618.5 335.59375 617.496094 C 333.917969 616.492188 332.269531 615.449219 330.644531 614.363281 C 329.019531 613.277344 327.425781 612.152344 325.855469 610.988281 C 324.289062 609.824219 322.75 608.621094 321.238281 607.382812 C 319.730469 606.144531 318.25 604.867188 316.804688 603.554688 C 315.355469 602.246094 313.941406 600.898438 312.5625 599.515625 C 311.179688 598.136719 309.832031 596.71875 308.523438 595.273438 C 307.210938 593.824219 305.933594 592.347656 304.695312 590.835938 C 303.457031 589.328125 302.253906 587.785156 301.09375 586.21875 C 299.929688 584.648438 298.804688 583.050781 297.71875 581.425781 C 296.632812 579.804688 295.589844 578.152344 294.585938 576.476562 C 293.582031 574.800781 292.617188 573.101562 291.699219 571.378906 C 290.777344 569.65625 289.898438 567.910156 289.066406 566.144531 C 288.230469 564.378906 287.4375 562.59375 286.691406 560.789062 C 285.945312 558.984375 285.242188 557.164062 284.582031 555.324219 C 283.925781 553.484375 283.3125 551.628906 282.746094 549.757812 C 282.179688 547.890625 281.65625 546.007812 281.183594 544.113281 C 280.707031 542.21875 280.28125 540.3125 279.898438 538.394531 C 279.519531 536.480469 279.183594 534.554688 278.898438 532.621094 C 278.613281 530.691406 278.371094 528.753906 278.179688 526.808594 C 277.988281 524.863281 277.847656 522.914062 277.75 520.964844 C 277.65625 519.011719 277.605469 517.0625 277.605469 515.109375 C 277.605469 513.152344 277.65625 511.203125 277.75 509.25 C 277.847656 507.300781 277.988281 505.351562 278.179688 503.40625 C 278.371094 501.460938 278.613281 499.523438 278.898438 497.59375 C 279.183594 495.660156 279.519531 493.734375 279.898438 491.820312 C 280.28125 489.902344 280.707031 487.996094 281.183594 486.101562 C 281.65625 484.207031 282.179688 482.324219 282.746094 480.457031 C 283.3125 478.585938 283.925781 476.730469 284.582031 474.890625 C 285.242188 473.050781 285.945312 471.230469 286.691406 469.425781 C 287.4375 467.621094 288.230469 465.835938 289.066406 464.070312 C 289.898438 462.304688 290.777344 460.558594 291.699219 458.835938 C 292.617188 457.113281 293.582031 455.414062 294.585938 453.738281 C 295.589844 452.0625 296.632812 450.410156 297.71875 448.789062 C 298.804688 447.164062 299.929688 445.566406 301.09375 443.996094 C 302.253906 442.429688 303.457031 440.886719 304.695312 439.378906 C 305.933594 437.867188 307.210938 436.390625 308.523438 434.941406 C 309.832031 433.496094 311.179688 432.078125 312.5625 430.699219 C 313.941406 429.316406 315.355469 427.96875 316.804688 426.660156 C 318.25 425.347656 319.730469 424.070312 321.238281 422.832031 C 322.75 421.59375 324.289062 420.390625 325.855469 419.226562 C 327.425781 418.0625 329.019531 416.9375 330.644531 415.851562 C 332.269531 414.765625 333.917969 413.722656 335.59375 412.71875 C 337.269531 411.714844 338.96875 410.75 340.691406 409.832031 C 342.414062 408.910156 344.15625 408.03125 345.921875 407.195312 C 347.6875 406.359375 349.472656 405.570312 351.277344 404.820312 C 353.082031 404.074219 354.902344 403.371094 356.742188 402.714844 C 358.582031 402.054688 360.433594 401.441406 362.304688 400.875 C 364.171875 400.308594 366.054688 399.789062 367.949219 399.3125 C 369.84375 398.835938 371.75 398.410156 373.664062 398.027344 C 375.582031 397.648438 377.503906 397.3125 379.4375 397.027344 C 381.367188 396.742188 383.304688 396.5 385.25 396.308594 C 387.195312 396.117188 389.140625 395.976562 391.089844 395.878906 C 393.042969 395.78125 394.992188 395.734375 396.945312 395.734375 C 398.898438 395.734375 400.851562 395.78125 402.804688 395.878906 C 404.753906 395.976562 406.699219 396.117188 408.644531 396.308594 C 410.589844 396.5 412.527344 396.742188 414.457031 397.027344 C 416.390625 397.3125 418.3125 397.648438 420.230469 398.027344 C 422.144531 398.410156 424.050781 398.835938 425.945312 399.3125 C 427.839844 399.789062 429.722656 400.308594 431.589844 400.875 C 433.457031 401.441406 435.3125 402.054688 437.152344 402.714844 C 438.992188 403.371094 440.8125 404.074219 442.617188 404.820312 C 444.421875 405.570312 446.207031 406.359375 447.972656 407.195312 C 449.738281 408.03125 451.480469 408.910156 453.203125 409.832031 C 454.925781 410.75 456.625 411.714844 458.300781 412.71875 C 459.976562 413.722656 461.625 414.765625 463.25 415.851562 C 464.875 416.9375 466.46875 418.0625 468.039062 419.226562 C 469.605469 420.390625 471.144531 421.59375 472.65625 422.832031 C 474.164062 424.070312 475.644531 425.347656 477.089844 426.660156 C 478.539062 427.96875 479.953125 429.316406 481.332031 430.699219 C 482.714844 432.078125 484.0625 433.496094 485.371094 434.941406 C 486.683594 436.390625 487.960938 437.867188 489.199219 439.378906 C 490.4375 440.886719 491.640625 442.429688 492.800781 443.996094 C 493.964844 445.566406 495.089844 447.164062 496.175781 448.789062 C 497.261719 450.410156 498.304688 452.0625 499.308594 453.738281 C 500.3125 455.414062 501.277344 457.113281 502.195312 458.835938 C 503.117188 460.558594 503.996094 462.304688 504.828125 464.070312 C 505.664062 465.835938 506.457031 467.621094 507.203125 469.425781 C 507.949219 471.230469 508.652344 473.050781 509.3125 474.890625 C 509.96875 476.730469 510.582031 478.585938 511.148438 480.457031 C 511.714844 482.324219 512.238281 484.207031 512.710938 486.101562 C 513.1875 487.996094 513.613281 489.902344 513.996094 491.820312 C 514.375 493.734375 514.710938 495.660156 514.996094 497.59375 C 515.28125 499.523438 515.523438 501.460938 515.714844 503.40625 C 515.90625 505.351562 516.046875 507.300781 516.144531 509.25 C 516.238281 511.203125 516.289062 513.152344 516.289062 515.109375 Z M 493.132812 515.148438 C 493.132812 513.574219 493.09375 512 493.015625 510.425781 C 492.9375 508.855469 492.824219 507.285156 492.667969 505.71875 C 492.515625 504.152344 492.320312 502.589844 492.089844 501.03125 C 491.859375 499.472656 491.589844 497.921875 491.285156 496.378906 C 490.976562 494.832031 490.632812 493.296875 490.25 491.769531 C 489.867188 490.242188 489.445312 488.726562 488.988281 487.21875 C 488.53125 485.710938 488.039062 484.21875 487.507812 482.734375 C 486.980469 481.253906 486.414062 479.785156 485.808594 478.328125 C 485.207031 476.875 484.570312 475.4375 483.898438 474.011719 C 483.222656 472.589844 482.515625 471.183594 481.773438 469.792969 C 481.03125 468.40625 480.257812 467.035156 479.445312 465.6875 C 478.636719 464.335938 477.796875 463.003906 476.921875 461.695312 C 476.046875 460.386719 475.140625 459.101562 474.203125 457.835938 C 473.265625 456.570312 472.296875 455.328125 471.296875 454.113281 C 470.300781 452.894531 469.273438 451.703125 468.214844 450.539062 C 467.15625 449.371094 466.074219 448.230469 464.960938 447.117188 C 463.847656 446.003906 462.707031 444.917969 461.539062 443.859375 C 460.375 442.804688 459.183594 441.777344 457.964844 440.777344 C 456.75 439.777344 455.507812 438.808594 454.242188 437.871094 C 452.980469 436.933594 451.691406 436.027344 450.382812 435.152344 C 449.074219 434.277344 447.746094 433.433594 446.394531 432.625 C 445.046875 431.816406 443.675781 431.039062 442.289062 430.296875 C 440.898438 429.554688 439.496094 428.847656 438.070312 428.175781 C 436.648438 427.5 435.210938 426.863281 433.753906 426.261719 C 432.300781 425.660156 430.832031 425.09375 429.351562 424.5625 C 427.867188 424.03125 426.375 423.539062 424.867188 423.082031 C 423.363281 422.625 421.84375 422.203125 420.316406 421.820312 C 418.792969 421.4375 417.253906 421.09375 415.710938 420.785156 C 414.167969 420.480469 412.617188 420.210938 411.058594 419.980469 C 409.503906 419.75 407.941406 419.554688 406.375 419.402344 C 404.808594 419.246094 403.238281 419.132812 401.667969 419.054688 C 400.09375 418.976562 398.519531 418.9375 396.945312 418.9375 C 395.375 418.9375 393.800781 418.976562 392.226562 419.054688 C 390.65625 419.132812 389.085938 419.246094 387.519531 419.402344 C 385.953125 419.554688 384.390625 419.75 382.835938 419.980469 C 381.277344 420.210938 379.726562 420.480469 378.183594 420.785156 C 376.636719 421.09375 375.101562 421.4375 373.578125 421.820312 C 372.050781 422.203125 370.53125 422.625 369.027344 423.082031 C 367.519531 423.539062 366.027344 424.03125 364.542969 424.5625 C 363.0625 425.09375 361.59375 425.660156 360.140625 426.261719 C 358.683594 426.863281 357.246094 427.5 355.824219 428.175781 C 354.398438 428.847656 352.996094 429.554688 351.605469 430.296875 C 350.21875 431.039062 348.847656 431.816406 347.5 432.625 C 346.148438 433.433594 344.820312 434.277344 343.511719 435.152344 C 342.203125 436.027344 340.914062 436.933594 339.648438 437.871094 C 338.386719 438.808594 337.144531 439.777344 335.929688 440.777344 C 334.710938 441.777344 333.519531 442.804688 332.355469 443.859375 C 331.1875 444.917969 330.046875 446.003906 328.933594 447.117188 C 327.820312 448.230469 326.738281 449.371094 325.679688 450.539062 C 324.621094 451.703125 323.59375 452.894531 322.597656 454.113281 C 321.597656 455.328125 320.628906 456.570312 319.691406 457.835938 C 318.753906 459.101562 317.847656 460.386719 316.972656 461.695312 C 316.097656 463.003906 315.257812 464.335938 314.445312 465.6875 C 313.636719 467.035156 312.863281 468.40625 312.121094 469.792969 C 311.378906 471.183594 310.671875 472.589844 309.996094 474.011719 C 309.324219 475.4375 308.6875 476.875 308.085938 478.328125 C 307.480469 479.785156 306.914062 481.253906 306.386719 482.734375 C 305.855469 484.21875 305.363281 485.710938 304.90625 487.21875 C 304.449219 488.726562 304.027344 490.242188 303.644531 491.769531 C 303.261719 493.296875 302.917969 494.832031 302.609375 496.378906 C 302.304688 497.921875 302.035156 499.472656 301.804688 501.03125 C 301.574219 502.589844 301.378906 504.152344 301.226562 505.71875 C 301.070312 507.285156 300.957031 508.855469 300.878906 510.425781 C 300.800781 512 300.761719 513.574219 300.761719 515.148438 C 300.761719 516.722656 300.800781 518.296875 300.878906 519.867188 C 300.957031 521.441406 301.070312 523.011719 301.226562 524.578125 C 301.378906 526.144531 301.574219 527.707031 301.804688 529.265625 C 302.035156 530.824219 302.304688 532.375 302.609375 533.917969 C 302.917969 535.460938 303.261719 536.996094 303.644531 538.523438 C 304.027344 540.050781 304.449219 541.570312 304.90625 543.074219 C 305.363281 544.582031 305.855469 546.078125 306.386719 547.558594 C 306.914062 549.042969 307.480469 550.511719 308.085938 551.964844 C 308.6875 553.421875 309.324219 554.859375 309.996094 556.28125 C 310.671875 557.707031 311.378906 559.113281 312.121094 560.5 C 312.863281 561.890625 313.636719 563.257812 314.445312 564.609375 C 315.257812 565.960938 316.097656 567.289062 316.972656 568.597656 C 317.847656 569.910156 318.753906 571.195312 319.691406 572.460938 C 320.628906 573.726562 321.597656 574.964844 322.597656 576.183594 C 323.59375 577.398438 324.621094 578.59375 325.679688 579.757812 C 326.738281 580.925781 327.820312 582.066406 328.933594 583.179688 C 330.046875 584.292969 331.1875 585.378906 332.355469 586.433594 C 333.519531 587.492188 334.710938 588.519531 335.929688 589.519531 C 337.144531 590.519531 338.386719 591.488281 339.648438 592.425781 C 340.914062 593.363281 342.203125 594.269531 343.511719 595.144531 C 344.820312 596.019531 346.148438 596.859375 347.5 597.667969 C 348.847656 598.480469 350.21875 599.253906 351.605469 599.996094 C 352.996094 600.738281 354.398438 601.449219 355.824219 602.121094 C 357.246094 602.792969 358.683594 603.433594 360.140625 604.035156 C 361.59375 604.636719 363.0625 605.203125 364.542969 605.734375 C 366.027344 606.265625 367.519531 606.757812 369.027344 607.214844 C 370.53125 607.671875 372.050781 608.09375 373.578125 608.472656 C 375.101562 608.855469 376.636719 609.203125 378.183594 609.507812 C 379.726562 609.816406 381.277344 610.085938 382.835938 610.316406 C 384.390625 610.546875 385.953125 610.738281 387.519531 610.894531 C 389.085938 611.050781 390.65625 611.164062 392.226562 611.242188 C 393.800781 611.320312 395.375 611.359375 396.945312 611.359375 C 398.519531 611.359375 400.09375 611.320312 401.667969 611.242188 C 403.238281 611.164062 404.808594 611.050781 406.375 610.894531 C 407.941406 610.738281 409.503906 610.546875 411.058594 610.316406 C 412.617188 610.085938 414.167969 609.816406 415.710938 609.507812 C 417.253906 609.203125 418.792969 608.855469 420.316406 608.472656 C 421.84375 608.09375 423.363281 607.671875 424.867188 607.214844 C 426.375 606.757812 427.867188 606.265625 429.351562 605.734375 C 430.832031 605.203125 432.300781 604.636719 433.753906 604.035156 C 435.210938 603.433594 436.648438 602.792969 438.070312 602.121094 C 439.496094 601.449219 440.898438 600.738281 442.289062 599.996094 C 443.675781 599.253906 445.046875 598.480469 446.394531 597.667969 C 447.746094 596.859375 449.074219 596.019531 450.382812 595.144531 C 451.691406 594.269531 452.980469 593.363281 454.242188 592.425781 C 455.507812 591.488281 456.75 590.519531 457.964844 589.519531 C 459.183594 588.519531 460.375 587.492188 461.539062 586.433594 C 462.707031 585.378906 463.847656 584.292969 464.960938 583.179688 C 466.074219 582.066406 467.15625 580.925781 468.214844 579.757812 C 469.273438 578.59375 470.300781 577.398438 471.296875 576.183594 C 472.296875 574.964844 473.265625 573.726562 474.203125 572.460938 C 475.140625 571.195312 476.046875 569.910156 476.921875 568.597656 C 477.796875 567.289062 478.636719 565.960938 479.445312 564.609375 C 480.257812 563.257812 481.03125 561.890625 481.773438 560.5 C 482.515625 559.113281 483.222656 557.707031 483.898438 556.28125 C 484.570312 554.859375 485.207031 553.421875 485.808594 551.964844 C 486.414062 550.511719 486.980469 549.042969 487.507812 547.558594 C 488.039062 546.078125 488.53125 544.582031 488.988281 543.074219 C 489.445312 541.570312 489.867188 540.050781 490.25 538.523438 C 490.632812 536.996094 490.976562 535.460938 491.285156 533.917969 C 491.589844 532.375 491.859375 530.824219 492.089844 529.265625 C 492.320312 527.707031 492.515625 526.144531 492.667969 524.578125 C 492.824219 523.011719 492.9375 521.441406 493.015625 519.867188 C 493.09375 518.296875 493.132812 516.722656 493.132812 515.148438 Z M 493.132812 515.148438 " fill-opacity="1" fill-rule="nonzero" />
  <path fill="#d61515" d="M 99.03125 407.386719 C 176.570312 407.402344 254.160156 407.394531 331.804688 407.367188 C 331.976562 407.371094 332.128906 407.425781 332.261719 407.53125 C 332.398438 407.636719 332.488281 407.769531 332.539062 407.929688 C 332.585938 408.09375 332.582031 408.257812 332.523438 408.417969 C 332.46875 408.578125 332.371094 408.707031 332.230469 408.804688 C 317.144531 418.40625 304.402344 430.480469 294.007812 445.035156 C 293.5625 445.652344 292.957031 445.964844 292.1875 445.964844 C 185.125 445.601562 111.355469 445.652344 70.878906 446.125 C 62.84375 446.21875 52.875 447.703125 40.96875 450.578125 C 39.996094 450.804688 39.511719 450.421875 39.511719 449.421875 L 39.511719 402.976562 C 39.511719 402.8125 39.546875 402.65625 39.621094 402.511719 C 39.695312 402.363281 39.796875 402.242188 39.929688 402.144531 C 40.0625 402.046875 40.207031 401.984375 40.371094 401.957031 C 40.53125 401.925781 40.691406 401.9375 40.847656 401.984375 C 59.453125 407.527344 79.71875 407.386719 99.03125 407.386719 Z M 99.03125 407.386719 " fill-opacity="1" fill-rule="nonzero" />
  <path fill="#d61515" d="M 547.574219 407.730469 C 547.574219 407.628906 547.609375 407.542969 547.679688 407.472656 C 547.75 407.402344 547.835938 407.367188 547.9375 407.367188 L 548.039062 407.367188 C 548.8125 407.363281 549.574219 407.4375 550.332031 407.582031 C 551.089844 407.730469 551.824219 407.949219 552.539062 408.242188 C 553.253906 408.53125 553.929688 408.890625 554.574219 409.316406 C 555.21875 409.738281 555.8125 410.222656 556.359375 410.761719 C 556.90625 411.304688 557.394531 411.894531 557.828125 412.53125 C 558.257812 413.167969 558.621094 413.839844 558.917969 414.546875 C 559.21875 415.253906 559.441406 415.984375 559.597656 416.738281 C 559.75 417.492188 559.828125 418.25 559.828125 419.019531 L 559.871094 434.027344 C 559.871094 434.796875 559.800781 435.558594 559.652344 436.3125 C 559.503906 437.0625 559.285156 437.796875 558.992188 438.507812 C 558.699219 439.214844 558.339844 439.890625 557.910156 440.53125 C 557.484375 441.171875 557 441.765625 556.457031 442.308594 C 555.914062 442.851562 555.320312 443.339844 554.679688 443.769531 C 554.042969 444.199219 553.367188 444.558594 552.652344 444.855469 C 551.941406 445.152344 551.207031 445.375 550.453125 445.527344 C 549.695312 445.679688 548.933594 445.757812 548.160156 445.761719 L 548.058594 445.761719 C 547.957031 445.761719 547.871094 445.726562 547.800781 445.65625 C 547.730469 445.585938 547.695312 445.5 547.695312 445.398438 Z M 547.574219 407.730469 " fill-opacity="1" fill-rule="nonzero" />
  <path fill="#d61515" d="M 389.675781 424.195312 L 401.929688 424.003906 C 402.117188 424 402.296875 424.035156 402.472656 424.101562 C 402.648438 424.171875 402.800781 424.273438 402.9375 424.402344 C 403.070312 424.535156 403.175781 424.683594 403.25 424.855469 C 403.324219 425.03125 403.363281 425.210938 403.367188 425.398438 L 404.277344 483.367188 C 404.28125 483.554688 404.246094 483.734375 404.179688 483.910156 C 404.109375 484.085938 404.007812 484.238281 403.878906 484.375 C 403.75 484.507812 403.597656 484.613281 403.425781 484.6875 C 403.253906 484.761719 403.070312 484.800781 402.882812 484.804688 L 390.628906 484.996094 C 390.441406 485 390.261719 484.96875 390.085938 484.898438 C 389.914062 484.828125 389.757812 484.730469 389.621094 484.597656 C 389.488281 484.46875 389.382812 484.316406 389.308594 484.144531 C 389.234375 483.972656 389.195312 483.792969 389.191406 483.605469 L 388.28125 425.632812 C 388.277344 425.445312 388.3125 425.265625 388.382812 425.089844 C 388.449219 424.917969 388.550781 424.761719 388.679688 424.625 C 388.8125 424.492188 388.964844 424.386719 389.136719 424.3125 C 389.308594 424.238281 389.488281 424.199219 389.675781 424.195312 Z M 389.675781 424.195312 " fill-opacity="1" fill-rule="nonzero" />
  <path fill="#d61515" d="M 408.878906 444.488281 L 408.050781 425.734375 C 408.007812 424.738281 408.476562 424.339844 409.445312 424.542969 C 413.734375 425.371094 427.929688 427.496094 432.742188 431.785156 C 433.390625 432.363281 433.492188 433.03125 433.046875 433.785156 L 426.535156 444.789062 C 426.128906 445.480469 425.53125 445.824219 424.734375 445.824219 L 410.273438 445.824219 C 409.386719 445.824219 408.917969 445.378906 408.878906 444.488281 Z M 408.878906 444.488281 " fill-opacity="1" fill-rule="nonzero" />
  <path fill="#d61515" d="M 354.78125 434.148438 C 363.542969 429.714844 372.773438 426.671875 382.46875 425.027344 C 382.632812 424.996094 382.800781 425.003906 382.964844 425.046875 C 383.128906 425.089844 383.277344 425.167969 383.410156 425.277344 C 383.539062 425.386719 383.640625 425.519531 383.714844 425.671875 C 383.785156 425.828125 383.820312 425.988281 383.820312 426.160156 L 383.820312 444.75 C 383.820312 445.453125 383.472656 445.800781 382.769531 445.800781 C 371.445312 445.84375 359.59375 449.078125 354.175781 435.789062 C 353.878906 435.046875 354.078125 434.5 354.78125 434.148438 Z M 354.78125 434.148438 " fill-opacity="1" fill-rule="nonzero" />
  <path fill="#d61515" d="M 439.28125 434.367188 L 451.09375 441.328125 C 451.21875 441.402344 451.300781 441.511719 451.335938 441.652344 C 451.371094 441.792969 451.355469 441.925781 451.28125 442.050781 L 420.980469 493.503906 C 420.90625 493.628906 420.800781 493.710938 420.660156 493.746094 C 420.519531 493.78125 420.386719 493.761719 420.261719 493.691406 L 408.445312 486.730469 C 408.320312 486.65625 408.238281 486.546875 408.203125 486.40625 C 408.167969 486.265625 408.1875 486.132812 408.257812 486.007812 L 438.558594 434.554688 C 438.632812 434.429688 438.742188 434.347656 438.882812 434.3125 C 439.023438 434.277344 439.15625 434.296875 439.28125 434.367188 Z M 439.28125 434.367188 " fill-opacity="1" fill-rule="nonzero" />
  <path fill="#d61515" d="M 345.882812 439.066406 C 346.199219 438.808594 346.550781 438.617188 346.941406 438.5 C 347.332031 438.382812 347.726562 438.339844 348.132812 438.382812 C 348.539062 438.421875 348.921875 438.539062 349.28125 438.730469 C 349.640625 438.921875 349.953125 439.175781 350.210938 439.492188 L 384.976562 481.832031 C 385.292969 482.21875 385.527344 482.652344 385.675781 483.128906 C 385.828125 483.605469 385.882812 484.089844 385.84375 484.582031 C 385.804688 485.074219 385.671875 485.539062 385.449219 485.972656 C 385.222656 486.40625 384.925781 486.78125 384.550781 487.089844 L 378.664062 491.925781 C 378.289062 492.234375 377.863281 492.457031 377.390625 492.59375 C 376.921875 492.730469 376.4375 492.769531 375.945312 492.714844 C 375.453125 492.65625 374.984375 492.507812 374.546875 492.265625 C 374.105469 492.023438 373.726562 491.707031 373.40625 491.316406 L 338.640625 449 C 338.382812 448.683594 338.195312 448.332031 338.074219 447.941406 C 337.957031 447.550781 337.917969 447.152344 337.957031 446.746094 C 337.996094 446.339844 338.113281 445.957031 338.304688 445.597656 C 338.496094 445.238281 338.75 444.929688 339.066406 444.667969 Z M 345.882812 439.066406 " fill-opacity="1" fill-rule="nonzero" />
  <path fill="#d61515" d="M 288.953125 452.742188 L 279.164062 474.246094 C 278.878906 474.863281 278.390625 475.183594 277.6875 475.195312 C 253.3125 475.234375 229.042969 475.058594 204.882812 474.667969 C 191.683594 474.453125 183.382812 468.074219 179.988281 455.53125 C 179.914062 455.257812 179.871094 454.980469 179.863281 454.695312 C 179.855469 454.410156 179.878906 454.128906 179.933594 453.851562 C 179.988281 453.574219 180.074219 453.304688 180.191406 453.046875 C 180.308594 452.789062 180.453125 452.546875 180.625 452.320312 C 180.796875 452.097656 180.992188 451.894531 181.210938 451.714844 C 181.429688 451.535156 181.664062 451.382812 181.917969 451.257812 C 182.171875 451.132812 182.433594 451.039062 182.710938 450.972656 C 182.984375 450.910156 183.261719 450.878906 183.546875 450.878906 L 287.757812 450.878906 C 287.867188 450.878906 287.976562 450.894531 288.082031 450.921875 C 288.191406 450.949219 288.292969 450.988281 288.386719 451.042969 C 288.484375 451.09375 288.574219 451.160156 288.652344 451.234375 C 288.734375 451.308594 288.804688 451.390625 288.863281 451.484375 C 288.921875 451.578125 288.96875 451.675781 289.003906 451.78125 C 289.039062 451.882812 289.058594 451.992188 289.066406 452.101562 C 289.074219 452.210938 289.070312 452.320312 289.050781 452.429688 C 289.03125 452.535156 288.996094 452.640625 288.953125 452.742188 Z M 288.953125 452.742188 " fill-opacity="1" fill-rule="nonzero" />
  <path fill="#d61515" d="M 368.308594 451.121094 L 382.609375 450.800781 C 382.746094 450.796875 382.878906 450.820312 383.007812 450.871094 C 383.136719 450.917969 383.25 450.992188 383.351562 451.085938 C 383.453125 451.179688 383.53125 451.289062 383.585938 451.414062 C 383.644531 451.539062 383.675781 451.671875 383.679688 451.808594 L 384.46875 470.441406 C 384.476562 470.667969 384.417969 470.871094 384.292969 471.058594 C 384.167969 471.246094 384.003906 471.382812 383.792969 471.460938 C 383.582031 471.542969 383.367188 471.550781 383.148438 471.496094 C 382.933594 471.4375 382.753906 471.324219 382.609375 471.148438 L 367.523438 452.84375 C 367.242188 452.503906 367.195312 452.132812 367.378906 451.734375 C 367.5625 451.335938 367.871094 451.132812 368.308594 451.121094 Z M 368.308594 451.121094 " fill-opacity="1" fill-rule="nonzero" />
  <path fill="#d61515" d="M 409.75 451.203125 L 421.601562 450.71875 C 421.960938 450.695312 422.230469 450.839844 422.414062 451.148438 C 422.601562 451.460938 422.597656 451.765625 422.410156 452.074219 L 410.660156 472.058594 C 410.558594 472.234375 410.414062 472.359375 410.230469 472.433594 C 410.042969 472.511719 409.855469 472.523438 409.660156 472.472656 C 409.464844 472.417969 409.308594 472.3125 409.183594 472.152344 C 409.0625 471.996094 409 471.816406 409 471.613281 L 408.898438 452.09375 C 408.898438 451.855469 408.980469 451.648438 409.144531 451.476562 C 409.308594 451.304688 409.511719 451.214844 409.75 451.203125 Z M 409.75 451.203125 " fill-opacity="1" fill-rule="nonzero" />
  <path fill="#d61515" d="M 316.578125 471.917969 C 320.597656 464.703125 325.457031 458.109375 331.160156 452.132812 C 331.414062 451.867188 331.714844 451.664062 332.054688 451.523438 C 332.398438 451.382812 332.75 451.320312 333.121094 451.335938 C 333.488281 451.347656 333.835938 451.4375 334.164062 451.601562 C 334.492188 451.765625 334.769531 451.988281 335 452.277344 L 361.515625 484.761719 C 361.636719 484.910156 361.703125 485.074219 361.710938 485.265625 C 361.722656 485.453125 361.679688 485.625 361.578125 485.785156 C 361.476562 485.945312 361.339844 486.058594 361.164062 486.128906 C 360.988281 486.195312 360.808594 486.207031 360.625 486.160156 L 317.871094 474.910156 C 316.148438 474.46875 315.714844 473.46875 316.578125 471.917969 Z M 316.578125 471.917969 " fill-opacity="1" fill-rule="nonzero" />
  <path fill="#d61515" d="M 463.746094 477.542969 L 430.863281 490.285156 C 430.675781 490.363281 430.488281 490.375 430.292969 490.328125 C 430.097656 490.285156 429.9375 490.183594 429.804688 490.03125 C 429.675781 489.882812 429.601562 489.707031 429.582031 489.507812 C 429.566406 489.308594 429.609375 489.125 429.710938 488.949219 L 445.445312 461.742188 C 445.511719 461.625 445.601562 461.523438 445.710938 461.445312 C 445.824219 461.367188 445.945312 461.3125 446.082031 461.289062 C 446.214844 461.261719 446.347656 461.265625 446.480469 461.300781 C 446.613281 461.332031 446.734375 461.394531 446.839844 461.480469 L 464.007812 475.964844 C 464.132812 476.070312 464.226562 476.199219 464.28125 476.355469 C 464.339844 476.507812 464.351562 476.664062 464.328125 476.828125 C 464.300781 476.988281 464.234375 477.132812 464.128906 477.261719 C 464.027344 477.390625 463.898438 477.480469 463.746094 477.542969 Z M 463.746094 477.542969 " fill-opacity="1" fill-rule="nonzero" />
  <path fill="#d61515" d="M 424.355469 498.054688 L 478.464844 477.386719 C 478.648438 477.316406 478.832031 477.285156 479.027344 477.289062 C 479.21875 477.296875 479.402344 477.339844 479.582031 477.417969 C 479.757812 477.496094 479.910156 477.605469 480.042969 477.746094 C 480.175781 477.886719 480.277344 478.046875 480.347656 478.226562 L 484.601562 489.378906 C 484.671875 489.558594 484.703125 489.746094 484.699219 489.9375 C 484.691406 490.128906 484.648438 490.316406 484.570312 490.492188 C 484.492188 490.667969 484.382812 490.820312 484.242188 490.953125 C 484.101562 491.085938 483.941406 491.1875 483.761719 491.257812 L 429.652344 511.925781 C 429.472656 511.996094 429.285156 512.027344 429.089844 512.019531 C 428.898438 512.015625 428.714844 511.972656 428.539062 511.894531 C 428.363281 511.816406 428.207031 511.707031 428.074219 511.566406 C 427.941406 511.425781 427.839844 511.265625 427.773438 511.085938 L 423.515625 499.933594 C 423.445312 499.753906 423.414062 499.566406 423.421875 499.375 C 423.425781 499.179688 423.46875 498.996094 423.546875 498.820312 C 423.625 498.644531 423.734375 498.488281 423.875 498.355469 C 424.015625 498.222656 424.175781 498.125 424.355469 498.054688 Z M 424.355469 498.054688 " fill-opacity="1" fill-rule="nonzero" />
  <path fill="#d61515" d="M 371.949219 494.210938 C 372.054688 494.242188 372.136719 494.300781 372.191406 494.394531 C 372.246094 494.492188 372.257812 494.589844 372.234375 494.695312 L 371.039062 499.328125 C 370.878906 499.945312 370.707031 500.554688 370.515625 501.152344 C 370.324219 501.75 370.121094 502.328125 369.90625 502.878906 C 369.691406 503.433594 369.46875 503.957031 369.242188 504.445312 C 369.011719 504.933594 368.777344 505.382812 368.539062 505.789062 C 368.304688 506.195312 368.070312 506.550781 367.835938 506.855469 C 367.601562 507.164062 367.371094 507.414062 367.148438 507.609375 C 366.925781 507.804688 366.714844 507.941406 366.511719 508.019531 C 366.308594 508.09375 366.121094 508.113281 365.945312 508.066406 L 310.914062 493.828125 C 310.742188 493.78125 310.585938 493.671875 310.445312 493.507812 C 310.304688 493.339844 310.1875 493.117188 310.085938 492.839844 C 309.988281 492.5625 309.910156 492.230469 309.851562 491.851562 C 309.796875 491.46875 309.765625 491.042969 309.753906 490.578125 C 309.742188 490.109375 309.757812 489.605469 309.792969 489.066406 C 309.828125 488.527344 309.886719 487.964844 309.964844 487.378906 C 310.046875 486.792969 310.148438 486.191406 310.269531 485.578125 C 310.394531 484.964844 310.535156 484.347656 310.691406 483.730469 L 311.886719 479.078125 C 311.914062 478.96875 311.980469 478.886719 312.078125 478.832031 C 312.179688 478.773438 312.28125 478.765625 312.390625 478.796875 Z M 371.949219 494.210938 " fill-opacity="1" fill-rule="nonzero" />
  <path fill="#d61515" d="M 277.242188 482.132812 C 266.160156 520.792969 275.140625 560.644531 299.46875 592.28125 C 300.492188 593.601562 300.34375 593.75 299.023438 592.726562 C 297.566406 591.59375 295.78125 589.726562 293.664062 587.125 C 268.398438 556.039062 259.484375 520.945312 266.929688 481.851562 C 267.117188 480.90625 267.695312 480.414062 268.667969 480.375 L 275.707031 480.171875 C 275.949219 480.164062 276.183594 480.210938 276.40625 480.3125 C 276.625 480.414062 276.8125 480.5625 276.964844 480.757812 C 277.117188 480.953125 277.21875 481.167969 277.265625 481.410156 C 277.316406 481.652344 277.308594 481.894531 277.242188 482.132812 Z M 277.242188 482.132812 " fill-opacity="1" fill-rule="nonzero" />
  <path fill="#d61515" d="M 422.488281 515.167969 C 422.488281 516.003906 422.449219 516.835938 422.367188 517.667969 C 422.285156 518.5 422.164062 519.324219 422 520.144531 C 421.835938 520.964844 421.632812 521.773438 421.390625 522.574219 C 421.148438 523.371094 420.867188 524.15625 420.546875 524.929688 C 420.230469 525.703125 419.871094 526.457031 419.480469 527.191406 C 419.085938 527.929688 418.65625 528.644531 418.191406 529.339844 C 417.726562 530.035156 417.230469 530.703125 416.699219 531.351562 C 416.171875 531.996094 415.609375 532.613281 415.019531 533.207031 C 414.429688 533.796875 413.8125 534.355469 413.167969 534.886719 C 412.519531 535.417969 411.851562 535.914062 411.15625 536.378906 C 410.460938 536.84375 409.746094 537.269531 409.007812 537.664062 C 408.273438 538.058594 407.519531 538.414062 406.746094 538.734375 C 405.976562 539.054688 405.191406 539.335938 404.390625 539.578125 C 403.589844 539.820312 402.78125 540.023438 401.960938 540.1875 C 401.144531 540.351562 400.320312 540.472656 399.488281 540.554688 C 398.65625 540.636719 397.824219 540.675781 396.988281 540.675781 C 396.152344 540.675781 395.320312 540.636719 394.488281 540.554688 C 393.65625 540.472656 392.832031 540.351562 392.011719 540.1875 C 391.191406 540.023438 390.382812 539.820312 389.585938 539.578125 C 388.785156 539.335938 388 539.054688 387.226562 538.734375 C 386.457031 538.414062 385.703125 538.058594 384.964844 537.664062 C 384.230469 537.269531 383.515625 536.84375 382.820312 536.378906 C 382.125 535.914062 381.453125 535.417969 380.808594 534.886719 C 380.164062 534.355469 379.546875 533.796875 378.953125 533.207031 C 378.363281 532.613281 377.804688 531.996094 377.273438 531.351562 C 376.746094 530.703125 376.246094 530.035156 375.785156 529.339844 C 375.320312 528.644531 374.890625 527.929688 374.496094 527.191406 C 374.101562 526.457031 373.746094 525.703125 373.425781 524.929688 C 373.105469 524.15625 372.824219 523.371094 372.582031 522.574219 C 372.339844 521.773438 372.136719 520.964844 371.976562 520.144531 C 371.8125 519.324219 371.691406 518.5 371.609375 517.667969 C 371.527344 516.835938 371.484375 516.003906 371.484375 515.167969 C 371.484375 514.332031 371.527344 513.5 371.609375 512.667969 C 371.691406 511.835938 371.8125 511.011719 371.976562 510.191406 C 372.136719 509.371094 372.339844 508.5625 372.582031 507.761719 C 372.824219 506.964844 373.105469 506.179688 373.425781 505.40625 C 373.746094 504.632812 374.101562 503.878906 374.496094 503.144531 C 374.890625 502.40625 375.320312 501.691406 375.785156 500.996094 C 376.246094 500.300781 376.746094 499.632812 377.273438 498.984375 C 377.804688 498.339844 378.363281 497.722656 378.953125 497.128906 C 379.546875 496.539062 380.164062 495.980469 380.808594 495.449219 C 381.453125 494.917969 382.125 494.421875 382.820312 493.957031 C 383.515625 493.492188 384.230469 493.066406 384.964844 492.671875 C 385.703125 492.277344 386.457031 491.921875 387.226562 491.601562 C 388 491.28125 388.785156 491 389.585938 490.757812 C 390.382812 490.515625 391.191406 490.3125 392.011719 490.148438 C 392.832031 489.984375 393.65625 489.863281 394.488281 489.78125 C 395.320312 489.699219 396.152344 489.660156 396.988281 489.660156 C 397.824219 489.660156 398.65625 489.699219 399.488281 489.78125 C 400.320312 489.863281 401.144531 489.984375 401.960938 490.148438 C 402.78125 490.3125 403.589844 490.515625 404.390625 490.757812 C 405.191406 491 405.976562 491.28125 406.746094 491.601562 C 407.519531 491.921875 408.273438 492.277344 409.007812 492.671875 C 409.746094 493.066406 410.460938 493.492188 411.15625 493.957031 C 411.851562 494.421875 412.519531 494.917969 413.167969 495.449219 C 413.8125 495.980469 414.429688 496.539062 415.019531 497.128906 C 415.609375 497.722656 416.171875 498.339844 416.699219 498.984375 C 417.230469 499.632812 417.726562 500.300781 418.191406 500.996094 C 418.65625 501.691406 419.085938 502.40625 419.480469 503.144531 C 419.871094 503.878906 420.230469 504.632812 420.546875 505.40625 C 420.867188 506.179688 421.148438 506.964844 421.390625 507.761719 C 421.632812 508.5625 421.835938 509.371094 422 510.191406 C 422.164062 511.011719 422.285156 511.835938 422.367188 512.667969 C 422.449219 513.5 422.488281 514.332031 422.488281 515.167969 Z M 422.488281 515.167969 " fill-opacity="1" fill-rule="nonzero" />
  <path fill="#d61515" d="M 486.011719 526.660156 L 439.964844 515.046875 C 439.75 514.996094 439.570312 514.886719 439.429688 514.71875 C 439.285156 514.550781 439.210938 514.355469 439.199219 514.132812 C 439.1875 513.914062 439.242188 513.710938 439.363281 513.527344 C 439.488281 513.34375 439.652344 513.21875 439.863281 513.144531 L 484.578125 496.457031 C 484.789062 496.378906 485.003906 496.347656 485.230469 496.367188 C 485.453125 496.382812 485.664062 496.449219 485.859375 496.558594 C 486.054688 496.671875 486.214844 496.820312 486.34375 497.003906 C 486.476562 497.1875 486.558594 497.386719 486.597656 497.609375 C 488.269531 506.929688 488.546875 516.289062 487.429688 525.6875 C 487.320312 526.550781 486.847656 526.875 486.011719 526.660156 Z M 486.011719 526.660156 " fill-opacity="1" fill-rule="nonzero" />
  <path fill="#d61515" d="M 549.71875 506.355469 L 587.472656 515.769531 C 587.664062 515.816406 587.839844 515.902344 588 516.019531 C 588.160156 516.136719 588.289062 516.28125 588.394531 516.453125 C 588.496094 516.621094 588.5625 516.804688 588.589844 517 C 588.621094 517.195312 588.609375 517.390625 588.5625 517.585938 L 588.296875 518.644531 C 588.25 518.835938 588.167969 519.011719 588.050781 519.171875 C 587.929688 519.332031 587.785156 519.464844 587.617188 519.566406 C 587.445312 519.667969 587.261719 519.734375 587.066406 519.761719 C 586.871094 519.792969 586.675781 519.78125 586.484375 519.734375 L 548.730469 510.320312 C 548.535156 510.269531 548.359375 510.1875 548.203125 510.070312 C 548.042969 509.953125 547.910156 509.808594 547.808594 509.636719 C 547.707031 509.46875 547.640625 509.285156 547.609375 509.085938 C 547.582031 508.890625 547.589844 508.695312 547.640625 508.503906 L 547.902344 507.445312 C 547.953125 507.25 548.035156 507.074219 548.152344 506.914062 C 548.269531 506.757812 548.414062 506.625 548.585938 506.523438 C 548.753906 506.421875 548.9375 506.355469 549.132812 506.324219 C 549.332031 506.296875 549.523438 506.304688 549.71875 506.355469 Z M 549.71875 506.355469 " fill-opacity="1" fill-rule="nonzero" />
  <path fill="#d61515" d="M 700.464844 551.519531 C 728.628906 551.519531 756.457031 551.519531 783.949219 551.519531 C 784.078125 551.519531 784.207031 551.539062 784.335938 551.570312 C 784.460938 551.601562 784.582031 551.652344 784.695312 551.714844 C 784.808594 551.777344 784.914062 551.851562 785.007812 551.941406 C 785.105469 552.027344 785.1875 552.128906 785.257812 552.238281 C 785.332031 552.347656 785.386719 552.460938 785.429688 552.585938 C 785.472656 552.707031 785.5 552.835938 785.507812 552.964844 C 785.519531 553.09375 785.515625 553.222656 785.496094 553.351562 C 785.472656 553.480469 785.4375 553.605469 785.386719 553.726562 C 770.539062 588.335938 730.195312 602.253906 695.226562 593.515625 C 636.324219 578.800781 577.417969 563.996094 518.511719 549.09375 C 517.769531 548.902344 517.367188 548.425781 517.300781 547.65625 C 517.097656 544.742188 518.875 541.546875 519.199219 539.21875 C 520.519531 529.550781 521.140625 519.820312 521.058594 510.03125 C 521.046875 509.167969 521.464844 508.816406 522.3125 508.976562 C 533.15625 510.941406 546.503906 515.207031 554.046875 517.050781 C 594.789062 526.949219 635.460938 537.078125 676.054688 547.433594 C 684.285156 549.539062 691.769531 551.519531 700.464844 551.519531 Z M 593.363281 537.765625 C 593.425781 537.511719 593.441406 537.253906 593.402344 536.992188 C 593.363281 536.734375 593.273438 536.488281 593.140625 536.265625 C 593.003906 536.039062 592.832031 535.847656 592.621094 535.691406 C 592.410156 535.535156 592.175781 535.425781 591.921875 535.363281 L 540.980469 522.65625 C 540.722656 522.59375 540.464844 522.582031 540.207031 522.621094 C 539.945312 522.660156 539.703125 522.746094 539.476562 522.882812 C 539.253906 523.015625 539.0625 523.191406 538.90625 523.402344 C 538.75 523.613281 538.640625 523.847656 538.574219 524.101562 L 534.183594 541.726562 C 534.117188 541.984375 534.105469 542.242188 534.144531 542.5 C 534.183594 542.761719 534.269531 543.003906 534.40625 543.226562 C 534.542969 543.453125 534.714844 543.644531 534.925781 543.800781 C 535.136719 543.957031 535.371094 544.066406 535.625 544.132812 L 586.566406 556.835938 C 586.824219 556.898438 587.078125 556.910156 587.339844 556.871094 C 587.601562 556.832031 587.84375 556.746094 588.066406 556.609375 C 588.292969 556.476562 588.484375 556.300781 588.640625 556.089844 C 588.796875 555.878906 588.90625 555.648438 588.96875 555.390625 Z M 676.660156 558.855469 C 676.726562 558.582031 676.742188 558.308594 676.699219 558.027344 C 676.660156 557.75 676.566406 557.488281 676.421875 557.25 C 676.277344 557.007812 676.089844 556.800781 675.867188 556.632812 C 675.640625 556.464844 675.390625 556.347656 675.117188 556.277344 L 624.433594 543.542969 C 624.160156 543.476562 623.882812 543.460938 623.605469 543.503906 C 623.328125 543.542969 623.066406 543.636719 622.824219 543.78125 C 622.582031 543.925781 622.378906 544.113281 622.210938 544.339844 C 622.042969 544.566406 621.925781 544.8125 621.855469 545.085938 L 617.492188 562.46875 C 617.421875 562.742188 617.410156 563.019531 617.449219 563.296875 C 617.492188 563.578125 617.582031 563.835938 617.726562 564.078125 C 617.871094 564.320312 618.058594 564.523438 618.285156 564.691406 C 618.511719 564.859375 618.761719 564.980469 619.03125 565.046875 L 669.714844 577.78125 C 669.988281 577.851562 670.265625 577.863281 670.542969 577.824219 C 670.824219 577.78125 671.082031 577.691406 671.324219 577.542969 C 671.566406 577.398438 671.769531 577.214844 671.9375 576.988281 C 672.105469 576.761719 672.226562 576.511719 672.292969 576.238281 Z M 700.445312 585.808594 C 724.59375 591.433594 751.710938 583.886719 767.222656 563.757812 C 767.496094 563.410156 767.535156 563.035156 767.335938 562.640625 C 767.136719 562.246094 766.816406 562.050781 766.375 562.058594 L 706.148438 562.179688 C 705.753906 562.183594 705.402344 562.304688 705.09375 562.546875 C 704.785156 562.785156 704.582031 563.097656 704.488281 563.476562 L 699.273438 583.847656 C 699.21875 584.054688 699.210938 584.265625 699.242188 584.480469 C 699.273438 584.695312 699.34375 584.894531 699.453125 585.078125 C 699.5625 585.261719 699.703125 585.417969 699.875 585.542969 C 700.046875 585.671875 700.238281 585.757812 700.445312 585.808594 Z M 700.445312 585.808594 " fill-opacity="1" fill-rule="nonzero" />
  <path fill="#d61515" d="M 367.320312 527.667969 L 315.992188 554.390625 C 315.851562 554.464844 315.707031 554.503906 315.550781 554.511719 C 315.394531 554.523438 315.246094 554.5 315.097656 554.445312 C 314.953125 554.394531 314.824219 554.3125 314.710938 554.203125 C 314.597656 554.097656 314.511719 553.96875 314.453125 553.824219 L 309.5 542.195312 C 309.382812 541.925781 309.371094 541.652344 309.46875 541.375 C 309.566406 541.097656 309.746094 540.894531 310.003906 540.757812 L 364.609375 512.234375 C 364.769531 512.152344 364.941406 512.109375 365.125 512.109375 C 365.308594 512.109375 365.480469 512.152344 365.640625 512.238281 C 365.800781 512.320312 365.933594 512.4375 366.039062 512.589844 C 366.140625 512.738281 366.203125 512.902344 366.226562 513.085938 L 367.90625 526.535156 C 367.9375 526.769531 367.898438 526.988281 367.792969 527.195312 C 367.683594 527.402344 367.527344 527.5625 367.320312 527.667969 Z M 367.320312 527.667969 " fill-opacity="1" fill-rule="nonzero" />
  <path fill="#d61515" d="M 428.851562 517.414062 L 485.316406 531.707031 C 485.488281 531.75 485.648438 531.824219 485.792969 531.933594 C 485.9375 532.039062 486.054688 532.171875 486.148438 532.324219 C 486.238281 532.480469 486.296875 532.644531 486.324219 532.824219 C 486.347656 533.003906 486.339844 533.179688 486.296875 533.351562 L 483.300781 545.199219 C 483.253906 545.371094 483.179688 545.53125 483.074219 545.675781 C 482.964844 545.820312 482.835938 545.9375 482.679688 546.027344 C 482.527344 546.121094 482.359375 546.179688 482.183594 546.207031 C 482.003906 546.230469 481.828125 546.222656 481.652344 546.179688 L 425.1875 531.886719 C 425.015625 531.84375 424.855469 531.765625 424.710938 531.660156 C 424.566406 531.550781 424.449219 531.421875 424.359375 531.265625 C 424.265625 531.113281 424.207031 530.945312 424.179688 530.769531 C 424.15625 530.589844 424.164062 530.414062 424.207031 530.242188 L 427.203125 518.394531 C 427.25 518.222656 427.324219 518.0625 427.429688 517.917969 C 427.539062 517.773438 427.667969 517.65625 427.824219 517.5625 C 427.976562 517.472656 428.144531 517.414062 428.320312 517.386719 C 428.5 517.359375 428.675781 517.371094 428.851562 517.414062 Z M 428.851562 517.414062 " fill-opacity="1" fill-rule="nonzero" />
  <path fill="#d61515" d="M 544.332031 528.703125 L 585.796875 538.964844 C 586.027344 539.023438 586.238281 539.125 586.429688 539.265625 C 586.625 539.40625 586.78125 539.578125 586.902344 539.785156 C 587.027344 539.988281 587.105469 540.207031 587.144531 540.445312 C 587.179688 540.679688 587.167969 540.914062 587.109375 541.148438 L 585.070312 549.394531 C 585.011719 549.625 584.914062 549.835938 584.769531 550.03125 C 584.628906 550.222656 584.457031 550.378906 584.253906 550.503906 C 584.046875 550.625 583.828125 550.707031 583.589844 550.742188 C 583.355469 550.777344 583.121094 550.765625 582.890625 550.710938 L 541.429688 540.445312 C 541.195312 540.386719 540.984375 540.289062 540.792969 540.148438 C 540.601562 540.003906 540.441406 539.832031 540.320312 539.628906 C 540.195312 539.421875 540.117188 539.203125 540.082031 538.96875 C 540.046875 538.730469 540.054688 538.496094 540.113281 538.265625 L 542.152344 530.019531 C 542.210938 529.785156 542.3125 529.574219 542.453125 529.382812 C 542.59375 529.191406 542.765625 529.03125 542.972656 528.910156 C 543.175781 528.785156 543.394531 528.707031 543.632812 528.671875 C 543.867188 528.632812 544.101562 528.644531 544.332031 528.703125 Z M 544.332031 528.703125 " fill-opacity="1" fill-rule="nonzero" />
  <path fill="#d61515" d="M 373.789062 535.195312 L 383.113281 543.042969 C 383.359375 543.257812 383.519531 543.523438 383.589844 543.839844 C 383.660156 544.15625 383.632812 544.464844 383.5 544.761719 L 360.140625 596.996094 C 360.058594 597.183594 359.941406 597.347656 359.789062 597.484375 C 359.640625 597.625 359.464844 597.726562 359.273438 597.792969 C 359.078125 597.859375 358.878906 597.886719 358.675781 597.871094 C 358.472656 597.855469 358.277344 597.800781 358.097656 597.703125 L 347.4375 592.058594 C 347.269531 591.972656 347.125 591.859375 347 591.714844 C 346.878906 591.570312 346.785156 591.410156 346.722656 591.230469 C 346.660156 591.054688 346.632812 590.867188 346.640625 590.679688 C 346.652344 590.492188 346.695312 590.308594 346.773438 590.136719 L 371.484375 535.722656 C 371.578125 535.507812 371.71875 535.328125 371.898438 535.179688 C 372.078125 535.03125 372.28125 534.933594 372.507812 534.878906 C 372.734375 534.828125 372.960938 534.832031 373.1875 534.886719 C 373.410156 534.941406 373.613281 535.042969 373.789062 535.195312 Z M 373.789062 535.195312 " fill-opacity="1" fill-rule="nonzero" />
  <path fill="#d61515" d="M 407.34375 546.363281 L 411.730469 604.277344 C 411.796875 605.101562 411.421875 605.539062 410.597656 605.59375 L 398.300781 606.300781 C 398.109375 606.3125 397.921875 606.289062 397.738281 606.230469 C 397.554688 606.167969 397.386719 606.074219 397.242188 605.945312 C 397.097656 605.820312 396.980469 605.667969 396.894531 605.496094 C 396.808594 605.320312 396.757812 605.136719 396.746094 604.945312 L 392.375 547.554688 C 392.359375 547.308594 392.394531 547.070312 392.480469 546.835938 C 392.5625 546.605469 392.695312 546.402344 392.867188 546.222656 C 393.039062 546.046875 393.242188 545.910156 393.476562 545.820312 C 393.707031 545.726562 393.949219 545.683594 394.195312 545.695312 C 404.226562 546.113281 412.742188 542.847656 419.738281 535.902344 C 420.210938 535.429688 420.683594 535.429688 421.15625 535.902344 L 462.1875 577.128906 C 462.851562 577.789062 462.828125 578.4375 462.128906 579.070312 L 453.007812 587.265625 C 452.265625 587.925781 451.550781 587.898438 450.863281 587.183594 L 409.789062 545.25 C 409.578125 545.039062 409.324219 544.90625 409.03125 544.851562 C 408.734375 544.800781 408.453125 544.835938 408.179688 544.957031 C 407.910156 545.082031 407.695312 545.273438 407.542969 545.527344 C 407.390625 545.785156 407.320312 546.0625 407.34375 546.363281 Z M 407.34375 546.363281 " fill-opacity="1" fill-rule="nonzero" />
  <path fill="#d61515" d="M 709.242188 542.417969 L 747.667969 542.417969 C 747.960938 542.417969 748.242188 542.472656 748.511719 542.585938 C 748.78125 542.695312 749.019531 542.855469 749.226562 543.0625 C 749.433594 543.269531 749.59375 543.507812 749.703125 543.777344 C 749.816406 544.046875 749.871094 544.328125 749.871094 544.621094 L 749.871094 544.742188 C 749.871094 545.035156 749.816406 545.316406 749.703125 545.585938 C 749.59375 545.855469 749.433594 546.09375 749.226562 546.300781 C 749.019531 546.507812 748.78125 546.667969 748.511719 546.78125 C 748.242188 546.890625 747.960938 546.949219 747.667969 546.949219 L 709.242188 546.949219 C 708.949219 546.949219 708.667969 546.890625 708.398438 546.78125 C 708.128906 546.667969 707.890625 546.507812 707.683594 546.300781 C 707.476562 546.09375 707.316406 545.855469 707.207031 545.585938 C 707.09375 545.316406 707.039062 545.035156 707.039062 544.742188 L 707.039062 544.621094 C 707.039062 544.328125 707.09375 544.046875 707.207031 543.777344 C 707.316406 543.507812 707.476562 543.269531 707.683594 543.0625 C 707.890625 542.855469 708.128906 542.695312 708.398438 542.585938 C 708.667969 542.472656 708.949219 542.417969 709.242188 542.417969 Z M 709.242188 542.417969 " fill-opacity="1" fill-rule="nonzero" />
  <path fill="#d61515" d="M 628.007812 549.597656 L 668.765625 559.835938 C 669.050781 559.90625 669.308594 560.03125 669.542969 560.207031 C 669.777344 560.378906 669.96875 560.59375 670.121094 560.84375 C 670.269531 561.09375 670.367188 561.363281 670.410156 561.652344 C 670.453125 561.941406 670.4375 562.230469 670.367188 562.511719 L 668.496094 569.96875 C 668.421875 570.25 668.300781 570.511719 668.125 570.746094 C 667.953125 570.980469 667.738281 571.171875 667.488281 571.324219 C 667.238281 571.472656 666.96875 571.570312 666.679688 571.613281 C 666.390625 571.65625 666.101562 571.640625 665.820312 571.570312 L 625.0625 561.328125 C 624.777344 561.257812 624.519531 561.136719 624.285156 560.960938 C 624.046875 560.785156 623.855469 560.574219 623.707031 560.324219 C 623.554688 560.070312 623.460938 559.800781 623.417969 559.511719 C 623.375 559.222656 623.386719 558.9375 623.460938 558.652344 L 625.332031 551.199219 C 625.402344 550.914062 625.527344 550.65625 625.699219 550.421875 C 625.875 550.183594 626.085938 549.992188 626.335938 549.84375 C 626.589844 549.691406 626.859375 549.597656 627.148438 549.554688 C 627.4375 549.511719 627.722656 549.523438 628.007812 549.597656 Z M 628.007812 549.597656 " fill-opacity="1" fill-rule="nonzero" />
  <path fill="#d61515" d="M 755.839844 568.574219 C 742.105469 580.144531 724.53125 584.109375 706.917969 581.964844 C 705.851562 581.828125 705.433594 581.238281 705.664062 580.183594 L 708.292969 568.472656 C 708.480469 567.621094 709.007812 567.199219 709.871094 567.199219 L 755.332031 567.199219 C 755.6875 567.207031 755.929688 567.378906 756.050781 567.714844 C 756.175781 568.046875 756.101562 568.335938 755.839844 568.574219 Z M 755.839844 568.574219 " fill-opacity="1" fill-rule="nonzero" />
</svg>