<?xml version="1.0" standalone="no"?>
<!DOCTYPE svg PUBLIC "-//W3C//DTD SVG 20010904//EN"
 "http://www.w3.org/TR/2001/REC-SVG-20010904/DTD/svg10.dtd">
<svg version="1.0" xmlns="http://www.w3.org/2000/svg"
 width="520.000000pt" height="520.000000pt" viewBox="0 0 520.000000 520.000000"
 preserveAspectRatio="xMidYMid meet">
<metadata>
Created by potrace 1.14, written by Peter Selinger 2001-2017
</metadata>
<g transform="translate(0.000000,520.000000) scale(0.100000,-0.100000)"
fill="#000000" stroke="none">
<path d="M0 2600 l0 -2600 2600 0 2600 0 0 2600 0 2600 -2600 0 -2600 0 0
-2600z m733 1359 c23 -12 81 -60 128 -108 135 -136 251 -315 459 -712 62 -118
121 -226 130 -242 l16 -28 38 98 c46 118 151 341 202 426 201 338 399 526 611
581 112 29 124 26 212 -61 149 -148 161 -202 162 -721 0 -208 4 -510 8 -672 6
-250 10 -301 25 -338 28 -66 63 -77 131 -42 22 11 42 20 45 20 8 0 73 -90 69
-94 -66 -60 -527 -426 -536 -426 -26 0 -129 116 -165 186 -21 39 -47 109 -59
155 -22 82 -22 103 -26 817 -3 415 -8 732 -13 732 -5 0 -25 -14 -44 -30 -80
-70 -170 -311 -300 -799 -42 -157 -76 -292 -76 -302 0 -21 84 -97 117 -105 13
-4 39 -4 58 -1 30 5 36 2 58 -32 l25 -38 -221 -199 c-121 -109 -229 -205 -239
-212 -16 -12 -25 -10 -63 8 -50 24 -115 93 -115 122 0 11 -7 32 -15 47 -8 16
-12 31 -9 33 2 3 -2 11 -11 18 -8 7 -15 18 -15 25 0 7 -25 39 -55 71 -59 63
-139 212 -129 239 4 8 14 15 24 15 34 0 32 20 -2 21 -18 1 -36 1 -40 0 -12 -1
-50 78 -43 89 3 6 2 10 -3 10 -6 0 -15 13 -20 29 -12 33 0 40 56 36 21 -2 29
1 26 10 -7 18 44 16 80 -2 15 -8 25 -10 22 -4 -8 12 83 -25 98 -40 6 -5 17 -9
25 -8 12 0 10 4 -6 16 -13 8 -23 24 -23 33 0 15 -12 20 -67 26 -80 9 -101 7
-167 -12 -27 -8 -53 -14 -58 -14 -8 0 -98 181 -112 227 -5 17 -1 26 18 39 14
9 23 20 20 25 -3 5 0 9 5 9 6 0 11 10 11 22 0 19 -4 17 -34 -17 l-34 -38 -31
48 -31 49 0 -82 c0 -51 -6 -97 -15 -119 -18 -42 -18 -43 -4 -43 5 0 7 5 4 10
-3 6 -2 10 4 10 15 0 19 -210 4 -237 -10 -17 -10 -22 2 -27 19 -7 21 -96 3
-96 -7 0 -6 -5 4 -12 9 -8 20 -45 27 -93 14 -96 34 -129 83 -133 32 -3 35 -6
31 -30 -1 -15 0 -20 3 -12 13 33 28 60 34 60 4 0 6 -26 4 -57 -1 -32 0 -44 3
-28 2 17 9 35 15 40 7 7 9 -1 5 -27 -3 -20 -2 -38 3 -40 14 -5 1 -19 -74 -82
-37 -32 -72 -54 -76 -49 -5 4 -11 31 -14 58 -8 66 -11 80 -19 83 -4 1 -6 0 -4
-1 1 -2 -4 -11 -12 -20 -11 -14 -11 -20 -1 -32 7 -8 10 -22 6 -30 -3 -9 -2
-13 4 -10 13 8 2 -62 -14 -91 -17 -33 -231 -214 -252 -214 -16 0 -109 86 -138
128 l-28 40 53 77 c44 65 215 386 231 435 4 12 7 13 20 2 13 -11 16 -10 14 5
-1 19 4 20 44 8 22 -7 23 -6 12 8 -11 13 -10 16 5 20 15 4 15 5 -3 6 -11 0
-29 7 -39 15 -17 12 -18 16 -5 32 12 16 12 17 0 7 -24 -22 -32 -14 -27 25 3
20 3 29 1 20 -8 -28 -20 -21 -31 20 -8 32 -9 29 -5 -27 5 -59 4 -64 -13 -57
-14 5 -15 3 -7 -6 21 -26 5 -85 -48 -179 -58 -102 -199 -319 -227 -349 -7 -8
-22 23 -44 90 -19 63 -36 238 -20 211 6 -9 10 -8 13 7 4 15 1 18 -14 14 -18
-4 -19 -1 -14 24 7 39 11 138 5 150 -3 5 -3 48 -1 96 3 64 8 88 19 92 8 4 11
2 7 -5 -4 -8 1 -9 15 -4 15 5 21 2 21 -9 0 -18 16 -21 25 -6 10 17 -11 35 -41
38 -16 1 -33 7 -38 12 -7 7 -10 103 -9 258 1 335 1 334 13 327 6 -4 10 -12 8
-18 -4 -23 14 -80 21 -68 10 16 27 -5 33 -41 4 -23 2 -28 -16 -29 -18 -1 -18
-2 4 -8 14 -4 24 -13 23 -19 -1 -5 10 -15 25 -20 33 -12 74 -47 65 -56 -3 -3
3 -6 15 -6 12 0 22 -4 22 -10 0 -5 -5 -10 -12 -10 -6 0 -1 -9 12 -20 13 -11
18 -20 12 -20 -6 0 -9 -7 -6 -15 4 -8 11 -15 17 -15 6 0 19 -7 29 -17 16 -14
18 -15 18 0 0 9 -4 19 -10 22 -5 3 -10 16 -10 28 0 11 -11 32 -23 46 -23 25
-59 108 -72 165 -3 15 -8 26 -11 23 -5 -5 6 -53 21 -90 7 -17 6 -18 -14 -5
-12 7 -34 37 -48 67 -21 44 -23 55 -12 62 11 7 5 18 -27 47 -23 22 -48 42 -57
45 -10 4 -17 25 -22 64 -3 32 -8 76 -10 98 l-5 40 29 -33 c16 -19 41 -40 56
-48 27 -14 27 -14 11 8 -50 69 -50 70 -37 77 7 5 13 12 13 16 -1 10 -118 75
-137 75 -8 0 -18 7 -22 15 -5 8 -24 15 -43 16 -19 2 -39 5 -45 8 -5 3 -23 4
-40 2 l-30 -3 20 21 c11 11 130 113 265 226 l245 205 43 -5 c23 -2 61 -14 85
-26z m3527 -5 c88 -42 144 -94 262 -246 121 -156 167 -191 243 -185 28 2 58 7
67 11 13 6 20 2 27 -17 5 -14 14 -28 20 -31 17 -11 -27 -82 -67 -109 -83 -56
-223 -137 -237 -137 -3 0 -4 25 -2 56 3 39 14 70 37 106 18 29 24 45 14 37
-16 -12 -17 -12 -11 4 10 27 -8 20 -21 -8 -7 -15 -17 -22 -25 -19 -19 7 -27
-54 -16 -131 4 -33 4 -64 0 -68 -26 -26 -137 -84 -142 -75 -4 6 -9 3 -12 -8
-3 -12 -6 -6 -7 16 l-3 35 -7 -40 c-7 -37 -7 -36 -9 22 0 34 -6 74 -13 90 -12
27 -12 26 -18 -32 -6 -52 -7 -55 -9 -20 l-3 40 -9 -50 c-5 -27 -6 -56 -4 -63
8 -21 -33 -5 -95 37 -30 21 -83 71 -118 112 -197 232 -255 281 -341 295 -56 9
-133 -30 -198 -99 -93 -98 -127 -198 -125 -372 3 -462 292 -924 632 -1011 68
-17 115 -9 173 30 19 13 37 23 39 21 2 -2 2 40 0 94 l-3 97 -122 17 c-138 18
-186 13 -246 -26 l-38 -26 -37 38 c-20 20 -36 41 -36 46 0 6 93 101 207 213
l208 203 78 -2 c43 -1 131 -10 195 -20 108 -16 127 -23 244 -82 123 -62 127
-65 100 -75 -61 -25 -148 -44 -198 -46 -30 0 -54 -4 -54 -8 0 -18 -21 -6 -32
17 -6 14 -15 25 -20 25 -5 0 -4 -9 2 -19 14 -26 13 -31 -5 -25 -8 4 -15 1 -15
-6 0 -10 -3 -10 -15 0 -12 10 -15 10 -15 -1 0 -8 -11 -2 -25 14 -24 25 -42 37
-31 19 2 -4 1 -14 -3 -21 -7 -10 -13 -11 -31 -1 -21 11 -22 10 -16 -6 6 -15 5
-17 -5 -6 -7 6 -22 12 -34 12 -11 0 -31 7 -43 16 -12 8 -22 12 -22 8 0 -4 -9
1 -20 11 -12 11 -20 13 -20 6 0 -9 -5 -9 -21 0 -17 9 -20 8 -14 -2 6 -9 3 -11
-8 -6 -10 3 -17 5 -17 3 0 -3 -2 -11 -6 -19 -4 -11 8 -16 55 -21 34 -4 61 -11
61 -16 0 -6 -9 -10 -21 -10 -11 0 -17 -5 -14 -10 4 -6 10 -8 14 -5 15 8 121
14 121 6 0 -5 12 -6 28 -4 82 13 112 14 112 3 0 -6 -7 -13 -15 -16 -8 -4 -15
-10 -15 -16 0 -5 12 -1 28 10 29 20 75 40 107 46 11 3 58 14 104 25 47 11 86
19 88 17 8 -7 -171 -162 -197 -171 -36 -13 -50 -26 -18 -18 21 6 22 5 9 -10
-14 -18 -34 -30 -113 -70 -26 -13 -45 -27 -41 -30 3 -4 14 -2 25 4 11 6 27 8
36 4 16 -6 16 -7 0 -19 -10 -7 -14 -17 -10 -21 4 -5 -2 -5 -12 -1 -16 5 -17 4
-7 -8 10 -12 6 -18 -18 -32 -16 -10 -28 -21 -26 -24 2 -4 -2 -18 -10 -33 -8
-15 -11 -27 -8 -27 3 0 -29 -38 -70 -84 -42 -46 -74 -86 -71 -89 3 -3 -2 -17
-11 -31 -10 -14 -13 -26 -7 -26 6 0 13 8 16 18 4 9 27 40 54 68 26 27 44 46
40 40 -12 -15 -10 -28 3 -20 16 10 -2 -22 -51 -86 -24 -32 -39 -45 -35 -32 6
22 5 22 -14 10 -12 -7 -24 -22 -27 -33 -4 -11 -14 -29 -23 -39 -10 -13 -11
-17 -2 -11 9 5 12 3 9 -6 -5 -17 -128 -112 -135 -105 -3 3 4 21 15 41 12 19
17 35 12 35 -5 0 -19 -18 -31 -40 -26 -46 -38 -47 -15 -1 10 19 12 32 6 36 -6
4 -23 -22 -39 -57 -30 -65 -43 -66 -16 -1 8 20 13 38 11 40 -2 2 -12 -17 -22
-44 -21 -58 -22 -59 -56 -67 -26 -6 -27 -4 -31 36 l-4 43 -1 -47 -2 -48 -111
0 c-96 0 -123 4 -198 29 -130 44 -203 91 -317 205 -142 143 -241 305 -308 506
-66 202 -78 415 -33 591 47 182 135 336 295 514 215 241 480 428 687 486 107
29 230 23 315 -17z m-4146 -455 c26 -21 36 -14 14 10 -21 21 53 3 76 -19 18
-17 17 -18 -32 -34 -28 -10 -56 -24 -62 -32 -20 -23 -29 -17 -54 36 -24 49
-22 57 15 59 9 1 28 -8 43 -20z m4892 -680 c6 -10 -58 -113 -77 -125 -4 -2
-13 15 -20 38 -8 32 -8 43 1 46 6 2 23 15 38 28 30 26 47 30 58 13z m26 -105
c-23 -28 -44 -44 -59 -44 -17 0 -21 4 -16 18 9 24 25 52 47 85 l19 28 23 -22
23 -21 -37 -44z m-148 41 c3 -8 1 -15 -4 -15 -6 0 -10 7 -10 15 0 8 2 15 4 15
2 0 6 -7 10 -15z m-25 -36 c11 -33 5 -63 -13 -56 -39 15 -156 73 -156 77 0 3
36 6 79 7 l79 2 11 -30z m31 -136 c0 -20 -17 -47 -56 -91 -53 -59 -56 -65 -51
-107 5 -53 1 -60 -27 -42 -42 27 -62 29 -31 3 17 -14 35 -25 42 -26 17 0 23
-13 29 -62 3 -24 15 -63 27 -88 19 -38 27 -46 57 -50 33 -5 35 -8 41 -50 3
-25 7 -37 7 -27 3 27 22 20 22 -8 0 -14 5 -25 10 -25 28 0 -8 -34 -206 -196
-245 -200 -222 -193 -310 -103 -43 44 -47 52 -36 69 6 11 12 23 12 27 0 5 -5
0 -11 -9 -14 -24 -33 -23 -26 2 3 11 1 20 -4 20 -15 0 -10 40 6 46 9 4 15 20
16 38 1 30 1 30 9 6 4 -14 9 -20 10 -15 1 6 8 -6 15 -25 19 -48 19 -23 0 30
-17 48 -19 72 -5 50 11 -17 10 -23 16 75 7 110 8 114 28 112 10 -1 21 5 23 13
4 13 3 13 -6 0 -13 -18 -13 -3 -1 25 5 11 9 14 9 6 1 -10 4 -11 14 -2 8 6 16
8 20 5 8 -8 2 39 -7 57 -4 8 3 2 16 -14 31 -35 44 -24 17 15 -12 16 -19 31
-16 34 3 3 19 -14 35 -38 36 -52 58 -72 66 -60 3 5 -6 20 -19 32 -14 13 -25
28 -25 34 0 5 19 -8 42 -29 39 -37 40 -37 10 -5 -22 25 -29 39 -21 47 7 7 2
19 -16 41 -25 30 -26 60 -2 46 7 -4 9 -4 5 1 -10 11 62 96 75 88 5 -3 7 -1 4
4 -6 10 72 90 123 126 14 9 34 24 45 32 26 19 25 19 25 -12z m-304 -290 c-4
-10 -4 -14 0 -10 8 7 34 -10 34 -23 0 -10 -20 -8 -37 3 -16 10 -17 47 -2 47 6
0 8 -7 5 -17z m-3456 -221 c0 -7 -8 -16 -17 -19 -10 -4 -21 -11 -25 -17 -5 -6
-8 -1 -8 11 0 16 4 21 15 17 19 -8 19 -6 -4 38 -10 21 -21 34 -25 31 -3 -4 -6
2 -6 13 1 15 8 10 35 -21 19 -22 35 -46 35 -53z m3897 51 c39 -46 41 -58 8
-79 -24 -15 -26 -15 -53 13 -37 37 -47 72 -24 89 26 20 33 17 69 -23z m-3744
-35 c9 -31 2 -33 -11 -3 -6 14 -8 25 -3 25 5 0 11 -10 14 -22z m3088 -220
c-12 -12 -21 -17 -21 -12 0 15 35 55 38 44 2 -5 -6 -19 -17 -32z"/>
<path d="M652 2804 c-2 -22 -24 -33 -72 -35 -20 -1 -17 -3 13 -11 41 -11 49
-27 15 -29 -22 -1 -22 -1 2 -8 14 -4 24 -13 23 -19 -2 -7 2 -12 7 -12 6 0 10
-6 11 -12 0 -7 8 -30 18 -52 l17 -38 -1 45 c0 25 -3 43 -7 41 -10 -6 -17 28
-21 96 -2 30 -4 45 -5 34z"/>
<path d="M568 2783 c6 -2 18 -2 25 0 6 3 1 5 -13 5 -14 0 -19 -2 -12 -5z"/>
<path d="M528 2753 c7 -3 16 -2 19 1 4 3 -2 6 -13 5 -11 0 -14 -3 -6 -6z"/>
<path d="M790 2668 c0 -16 -5 -38 -11 -50 -6 -11 -8 -22 -5 -26 9 -9 34 30 29
45 -3 7 0 13 7 13 6 0 8 5 5 10 -3 6 -1 10 4 10 19 0 12 17 -9 23 -17 4 -20 0
-20 -25z"/>
<path d="M692 2560 c0 -14 2 -19 5 -12 2 6 2 18 0 25 -3 6 -5 1 -5 -13z"/>
<path d="M440 2534 c0 -8 5 -12 10 -9 6 4 8 11 5 16 -9 14 -15 11 -15 -7z"/>
<path d="M466 2534 c-8 -22 -8 -26 3 -19 5 3 12 1 16 -5 4 -6 11 -8 16 -5 5 4
9 2 9 -3 0 -5 11 -12 25 -14 14 -3 25 -1 25 3 0 5 -5 9 -11 9 -6 0 -25 11 -43
25 -29 22 -34 23 -40 9z"/>
<path d="M800 2445 c-11 -13 -10 -14 4 -9 9 3 16 10 16 15 0 13 -6 11 -20 -6z"/>
<path d="M1215 2393 c11 -3 25 -9 32 -15 7 -6 14 -5 19 3 4 7 3 9 -4 5 -6 -3
-13 -2 -17 4 -3 5 -16 9 -28 9 -20 -1 -21 -2 -2 -6z"/>
<path d="M448 2373 c7 -3 16 -2 19 1 4 3 -2 6 -13 5 -11 0 -14 -3 -6 -6z"/>
<path d="M1327 2351 c22 -16 49 -42 61 -57 11 -16 24 -26 28 -22 4 4 2 14 -5
22 -9 11 -9 15 1 18 13 5 -91 68 -112 68 -7 0 5 -13 27 -29z"/>
<path d="M388 2363 c7 -3 16 -2 19 1 4 3 -2 6 -13 5 -11 0 -14 -3 -6 -6z"/>
<path d="M830 2326 c0 -2 7 -7 16 -10 8 -3 12 -2 9 4 -6 10 -25 14 -25 6z"/>
<path d="M829 2153 c5 -17 7 -34 3 -37 -3 -3 0 -6 7 -6 8 0 11 -7 7 -15 -3 -8
0 -15 6 -15 9 0 9 -3 0 -12 -20 -20 -13 -28 13 -16 30 13 30 16 5 48 -11 14
-20 30 -20 36 0 5 -7 19 -15 30 -13 17 -14 17 -6 -13z"/>
<path d="M965 2040 c-3 -5 -1 -10 4 -10 6 0 11 5 11 10 0 6 -2 10 -4 10 -3 0
-8 -4 -11 -10z"/>
<path d="M4850 3477 c0 -1 -4 -18 -10 -36 -5 -19 -6 -30 -1 -25 10 11 24 64
16 64 -3 0 -5 -1 -5 -3z"/>
<path d="M4372 3270 c0 -14 2 -19 5 -12 2 6 2 18 0 25 -3 6 -5 1 -5 -13z"/>
<path d="M4620 2660 c0 -22 3 -40 8 -40 4 0 6 18 4 40 -2 22 -6 40 -8 40 -2 0
-4 -18 -4 -40z"/>
<path d="M4485 2603 c15 -32 25 -42 25 -24 0 5 -9 19 -20 32 l-21 24 16 -32z"/>
<path d="M4465 2580 c3 -5 8 -10 11 -10 2 0 4 5 4 10 0 6 -5 10 -11 10 -5 0
-7 -4 -4 -10z"/>
<path d="M4615 2540 c-3 -5 -1 -10 4 -10 6 0 11 5 11 10 0 6 -2 10 -4 10 -3 0
-8 -4 -11 -10z"/>
<path d="M4493 2373 c9 -2 25 -2 35 0 9 3 1 5 -18 5 -19 0 -27 -2 -17 -5z"/>
<path d="M4426 2228 c5 -7 2 -9 -8 -6 -8 4 -15 0 -15 -7 0 -10 5 -11 19 -4 16
9 17 29 2 29 -3 0 -2 -5 2 -12z"/>
<path d="M4394 2174 c-18 -14 -18 -15 4 -4 12 6 22 13 22 15 0 8 -5 6 -26 -11z"/>
<path d="M4319 2053 l-24 -28 28 24 c25 23 32 31 24 31 -2 0 -14 -12 -28 -27z"/>
<path d="M4331 1973 c-17 -21 -31 -42 -31 -48 1 -11 44 38 61 68 16 28 2 19
-30 -20z"/>
<path d="M4055 1799 c-4 -6 -5 -12 -2 -15 2 -3 7 2 10 11 7 17 1 20 -8 4z"/>
<path d="M3971 1734 c0 -11 3 -14 6 -6 3 7 2 16 -1 19 -3 4 -6 -2 -5 -13z"/>
<path d="M4001 1733 c-1 -6 -4 -20 -7 -30 -5 -17 -5 -17 6 0 6 10 9 23 6 30
-3 9 -5 9 -5 0z"/>
<path d="M4830 2705 c13 -14 26 -25 28 -25 3 0 -5 11 -18 25 -13 14 -26 25
-28 25 -3 0 5 -11 18 -25z"/>
<path d="M4644 2363 c2 -10 7 -18 12 -18 5 0 16 -4 24 -10 12 -7 13 -6 3 7 -7
8 -9 19 -5 24 4 5 3 6 -2 2 -5 -4 -15 -3 -22 3 -9 7 -12 6 -10 -8z"/>
<path d="M4629 2297 c35 -37 49 -47 34 -24 -4 6 -8 15 -8 20 0 4 -3 6 -6 5 -4
-2 -17 6 -30 17 -13 11 -8 3 10 -18z"/>
<path d="M4723 2295 c0 -8 4 -12 9 -9 5 3 6 10 3 15 -9 13 -12 11 -12 -6z"/>
<path d="M4704 2246 c1 -8 5 -18 8 -22 4 -3 5 1 4 10 -1 8 -5 18 -8 22 -4 3
-5 -1 -4 -10z"/>
<path d="M4680 2226 c0 -2 8 -10 18 -17 15 -13 16 -12 3 4 -13 16 -21 21 -21
13z"/>
<path d="M4584 2178 c-4 -7 -3 -10 1 -5 5 4 32 -14 59 -40 l51 -48 -50 53
c-27 28 -50 52 -52 52 -1 0 -5 -6 -9 -12z"/>
<path d="M4530 2150 c6 -11 13 -20 16 -20 2 0 0 9 -6 20 -6 11 -13 20 -16 20
-2 0 0 -9 6 -20z"/>
<path d="M4570 2121 c5 -11 15 -23 21 -27 6 -3 3 5 -6 20 -20 30 -30 35 -15 7z"/>
<path d="M4590 2126 c0 -2 8 -10 18 -17 15 -13 16 -12 3 4 -13 16 -21 21 -21
13z"/>
<path d="M4635 2110 c10 -11 20 -20 23 -20 3 0 -3 9 -13 20 -10 11 -20 20 -23
20 -3 0 3 -9 13 -20z"/>
<path d="M4576 2077 c3 -10 9 -15 12 -12 3 3 0 11 -7 18 -10 9 -11 8 -5 -6z"/>
<path d="M4610 2066 c0 -2 8 -10 18 -17 15 -13 16 -12 3 4 -13 16 -21 21 -21
13z"/>
<path d="M4550 2020 c6 -11 13 -20 16 -20 2 0 0 9 -6 20 -6 11 -13 20 -16 20
-2 0 0 -9 6 -20z"/>
<path d="M4480 2021 c0 -6 4 -13 10 -16 6 -3 7 1 4 9 -7 18 -14 21 -14 7z"/>
<path d="M4451 1994 c0 -11 3 -14 6 -6 3 7 2 16 -1 19 -3 4 -6 -2 -5 -13z"/>
</g>
</svg>
